<?xml version="1.0" standalone="no"?>
<svg version="1.0" xmlns="http://www.w3.org/2000/svg"
 width="452" height="452" viewBox="0 0 452 452">
<rect width="452" height="452" fill="#A40046"/>
<path fill="#ffffff" fill-rule="evenodd" stroke="none" d="M 244.0 439.5 L 242.0 439.5 L 240.0 439.5 L 238.0 439.5 L 236.0 439.5 L 234.0 439.5 L 232.0 439.5 L 230.0 439.5 L 228.0 439.5 L 226.0 439.5 L 224.0 439.5 L 222.0 439.5 L 220.0 439.5 L 218.0 439.5 L 216.0 439.5 L 214.0 439.5 L 212.0 439.5 L 210.0 439.5 L 208.0 439.5 L 206.5 439.0 L 205.0 438.5 L 203.0 438.5 L 201.0 438.5 L 199.0 438.5 L 197.5 438.0 L 196.0 437.5 L 194.0 437.5 L 192.0 437.5 L 190.5 437.0 L 189.0 436.5 L 187.0 436.5 L 185.5 436.0 L 184.0 435.5 L 182.0 435.5 L 180.5 435.0 L 179.0 434.5 L 177.0 434.5 L 175.5 434.0 L 174.0 433.5 L 172.0 433.5 L 171.0 432.5 L 169.0 432.5 L 168.0 431.5 L 166.0 431.5 L 164.5 431.0 L 163.0 430.5 L 161.5 430.0 L 160.0 429.5 L 158.5 429.0 L 157.0 428.5 L 155.5 428.0 L 154.0 427.5 L 152.5 427.0 L 151.0 426.5 L 149.5 426.0 L 148.0 425.5 L 147.0 424.5 L 145.0 424.5 L 144.0 423.5 L 142.5 423.0 L 141.0 422.5 L 139.5 422.0 L 138.0 421.5 L 137.0 420.5 L 135.5 420.0 L 134.0 419.5 L 133.0 418.5 L 131.5 418.0 L 130.0 417.5 L 129.0 416.5 L 127.5 416.0 L 126.0 415.5 L 125.0 414.5 L 123.5 414.0 L 122.0 413.5 L 121.0 412.5 L 120.0 411.5 L 118.5 411.0 L 117.0 410.5 L 116.0 409.5 L 115.0 408.5 L 113.5 408.0 L 112.0 407.5 L 111.0 406.5 L 110.0 405.5 L 108.5 405.0 L 107.5 404.0 L 106.0 403.5 L 105.0 402.5 L 104.0 401.5 L 102.5 401.0 L 101.5 400.0 L 100.5 399.0 L 99.0 398.5 L 98.0 397.5 L 97.0 396.5 L 96.0 395.5 L 94.5 395.0 L 93.5 394.0 L 92.5 393.0 L 91.0 392.5 L 90.0 391.5 L 89.0 390.5 L 88.0 389.5 L 87.0 388.5 L 86.0 387.5 L 85.0 386.5 L 83.5 386.0 L 82.5 385.0 L 81.5 384.0 L 80.5 383.0 L 79.5 382.0 L 78.5 381.0 L 77.5 380.0 L 76.5 379.0 L 75.5 378.0 L 74.5 377.0 L 73.5 376.0 L 72.5 375.0 L 71.5 374.0 L 70.5 373.0 L 69.5 372.0 L 68.5 371.0 L 67.5 370.0 L 66.5 369.0 L 65.5 368.0 L 64.5 367.0 L 63.5 366.0 L 63.0 364.5 L 62.0 363.5 L 61.0 362.5 L 60.0 361.5 L 59.0 360.5 L 58.5 359.0 L 57.5 358.0 L 56.5 357.0 L 55.5 356.0 L 55.0 354.5 L 54.0 353.5 L 53.0 352.5 L 52.5 351.0 L 51.5 350.0 L 50.5 349.0 L 49.5 348.0 L 49.0 346.5 L 48.0 345.5 L 47.0 344.5 L 46.5 343.0 L 45.5 342.0 L 45.0 340.5 L 44.0 339.5 L 43.5 338.0 L 42.5 337.0 L 41.5 336.0 L 41.0 334.5 L 40.5 333.0 L 39.5 332.0 L 38.5 331.0 L 38.0 329.5 L 37.5 328.0 L 36.5 327.0 L 36.0 325.5 L 35.5 324.0 L 34.5 323.0 L 34.0 321.5 L 33.5 320.0 L 32.5 319.0 L 32.0 317.5 L 31.5 316.0 L 30.5 315.0 L 30.0 313.5 L 29.5 312.0 L 28.5 311.0 L 28.5 309.0 L 27.5 308.0 L 27.0 306.5 L 26.5 305.0 L 26.0 303.5 L 25.5 302.0 L 24.5 301.0 L 24.5 299.0 L 23.5 298.0 L 23.5 296.0 L 22.5 295.0 L 22.5 293.0 L 21.5 292.0 L 21.5 290.0 L 20.5 289.0 L 20.5 287.0 L 19.5 286.0 L 19.5 284.0 L 19.0 282.5 L 18.5 281.0 L 18.0 279.5 L 17.5 278.0 L 17.5 276.0 L 16.5 275.0 L 16.5 273.0 L 16.5 271.0 L 15.5 270.0 L 15.5 268.0 L 15.5 266.0 L 14.5 265.0 L 14.5 263.0 L 14.5 261.0 L 13.5 260.0 L 13.5 258.0 L 13.5 256.0 L 13.5 254.0 L 12.5 253.0 L 12.5 251.0 L 12.5 249.0 L 12.5 247.0 L 12.5 245.0 L 11.5 244.0 L 11.5 242.0 L 11.5 240.0 L 11.5 238.0 L 11.5 236.0 L 11.5 234.0 L 11.5 232.0 L 11.5 230.0 L 11.5 228.0 L 11.5 226.0 L 11.5 224.0 L 11.5 222.0 L 11.5 220.0 L 11.5 218.0 L 11.5 216.0 L 11.5 214.0 L 11.5 212.0 L 11.5 210.0 L 11.5 208.0 L 12.0 206.5 L 12.5 205.0 L 12.5 203.0 L 12.5 201.0 L 12.5 199.0 L 13.0 197.5 L 13.5 196.0 L 13.5 194.0 L 13.5 192.0 L 14.0 190.5 L 14.5 189.0 L 14.5 187.0 L 15.0 185.5 L 15.5 184.0 L 15.5 182.0 L 16.0 180.5 L 16.5 179.0 L 16.5 177.0 L 17.0 175.5 L 17.5 174.0 L 17.5 172.0 L 18.5 171.0 L 18.5 169.0 L 19.5 168.0 L 19.5 166.0 L 20.0 164.5 L 20.5 163.0 L 21.0 161.5 L 21.5 160.0 L 22.0 158.5 L 22.5 157.0 L 23.0 155.5 L 23.5 154.0 L 24.0 152.5 L 24.5 151.0 L 25.0 149.5 L 25.5 148.0 L 26.5 147.0 L 26.5 145.0 L 27.5 144.0 L 28.0 142.5 L 28.5 141.0 L 29.5 140.0 L 29.5 138.0 L 30.5 137.0 L 31.0 135.5 L 31.5 134.0 L 32.5 133.0 L 33.0 131.5 L 33.5 130.0 L 34.5 129.0 L 35.0 127.5 L 35.5 126.0 L 36.5 125.0 L 37.0 123.5 L 37.5 122.0 L 38.5 121.0 L 39.5 120.0 L 40.0 118.5 L 41.0 117.5 L 41.5 116.0 L 42.5 115.0 L 43.0 113.5 L 44.0 112.5 L 44.5 111.0 L 45.5 110.0 L 46.0 108.5 L 47.0 107.5 L 47.5 106.0 L 48.5 105.0 L 49.5 104.0 L 50.0 102.5 L 51.0 101.5 L 52.0 100.5 L 52.5 99.0 L 53.5 98.0 L 54.5 97.0 L 55.5 96.0 L 56.0 94.5 L 57.0 93.5 L 58.0 92.5 L 58.5 91.0 L 59.5 90.0 L 60.5 89.0 L 61.5 88.0 L 62.5 87.0 L 63.5 86.0 L 64.5 85.0 L 65.5 84.0 L 66.0 82.5 L 67.0 81.5 L 68.0 80.5 L 69.0 79.5 L 70.0 78.5 L 71.0 77.5 L 72.0 76.5 L 73.0 75.5 L 74.0 74.5 L 75.0 73.5 L 76.0 72.5 L 77.0 71.5 L 78.0 70.5 L 79.0 69.5 L 80.0 68.5 L 81.0 67.5 L 82.0 66.5 L 83.0 65.5 L 84.0 64.5 L 85.5 64.0 L 86.5 63.0 L 87.5 62.0 L 88.5 61.0 L 89.5 60.0 L 90.5 59.0 L 92.0 58.5 L 93.0 57.5 L 94.0 56.5 L 95.0 55.5 L 96.5 55.0 L 97.5 54.0 L 98.5 53.0 L 100.0 52.5 L 101.0 51.5 L 102.0 50.5 L 103.0 49.5 L 104.5 49.0 L 105.5 48.0 L 107.0 47.5 L 108.0 46.5 L 109.0 45.5 L 110.5 45.0 L 112.0 44.5 L 113.0 43.5 L 114.0 42.5 L 115.5 42.0 L 117.0 41.5 L 118.0 40.5 L 119.0 39.5 L 120.5 39.0 L 121.5 38.0 L 123.0 37.5 L 124.0 36.5 L 125.5 36.0 L 127.0 35.5 L 128.0 34.5 L 129.5 34.0 L 131.0 33.5 L 132.0 32.5 L 133.5 32.0 L 135.0 31.5 L 136.0 30.5 L 137.5 30.0 L 139.0 29.5 L 140.5 29.0 L 142.0 28.5 L 143.0 27.5 L 144.5 27.0 L 146.0 26.5 L 147.5 26.0 L 149.0 25.5 L 150.0 24.5 L 152.0 24.5 L 153.0 23.5 L 155.0 23.5 L 156.0 22.5 L 158.0 22.5 L 159.0 21.5 L 161.0 21.5 L 162.0 20.5 L 164.0 20.5 L 165.0 19.5 L 167.0 19.5 L 168.5 19.0 L 170.0 18.5 L 171.5 18.0 L 173.0 17.5 L 175.0 17.5 L 176.0 16.5 L 178.0 16.5 L 180.0 16.5 L 181.0 15.5 L 183.0 15.5 L 185.0 15.5 L 186.0 14.5 L 188.0 14.5 L 190.0 14.5 L 191.0 13.5 L 193.0 13.5 L 195.0 13.5 L 197.0 13.5 L 198.0 12.5 L 200.0 12.5 L 202.0 12.5 L 204.0 12.5 L 206.0 12.5 L 207.0 11.5 L 209.0 11.5 L 211.0 11.5 L 213.0 11.5 L 215.0 11.5 L 217.0 11.5 L 219.0 11.5 L 221.0 11.5 L 223.0 11.5 L 225.0 11.5 L 227.0 11.5 L 229.0 11.5 L 231.0 11.5 L 233.0 11.5 L 235.0 11.5 L 237.0 11.5 L 239.0 11.5 L 241.0 11.5 L 243.0 11.5 L 244.5 12.0 L 246.0 12.5 L 248.0 12.5 L 250.0 12.5 L 252.0 12.5 L 253.5 13.0 L 255.0 13.5 L 257.0 13.5 L 259.0 13.5 L 260.5 14.0 L 262.0 14.5 L 264.0 14.5 L 265.5 15.0 L 267.0 15.5 L 269.0 15.5 L 270.5 16.0 L 272.0 16.5 L 274.0 16.5 L 275.5 17.0 L 277.0 17.5 L 279.0 17.5 L 280.0 18.5 L 282.0 18.5 L 283.0 19.5 L 285.0 19.5 L 286.5 20.0 L 288.0 20.5 L 289.5 21.0 L 291.0 21.5 L 292.5 22.0 L 294.0 22.5 L 295.5 23.0 L 297.0 23.5 L 298.5 24.0 L 300.0 24.5 L 301.5 25.0 L 303.0 25.5 L 304.0 26.5 L 306.0 26.5 L 307.0 27.5 L 308.5 28.0 L 310.0 28.5 L 311.0 29.5 L 313.0 29.5 L 314.0 30.5 L 315.5 31.0 L 317.0 31.5 L 318.0 32.5 L 319.5 33.0 L 321.0 33.5 L 322.0 34.5 L 323.5 35.0 L 325.0 35.5 L 326.0 36.5 L 327.5 37.0 L 329.0 37.5 L 330.0 38.5 L 331.0 39.5 L 332.5 40.0 L 333.5 41.0 L 335.0 41.5 L 336.0 42.5 L 337.5 43.0 L 338.5 44.0 L 340.0 44.5 L 341.0 45.5 L 342.5 46.0 L 343.5 47.0 L 345.0 47.5 L 346.0 48.5 L 347.0 49.5 L 348.5 50.0 L 349.5 51.0 L 350.5 52.0 L 352.0 52.5 L 353.0 53.5 L 354.0 54.5 L 355.0 55.5 L 356.5 56.0 L 357.5 57.0 L 358.5 58.0 L 360.0 58.5 L 361.0 59.5 L 362.0 60.5 L 363.0 61.5 L 364.0 62.5 L 365.0 63.5 L 366.0 64.5 L 367.5 65.0 L 368.5 66.0 L 369.5 67.0 L 370.5 68.0 L 371.5 69.0 L 372.5 70.0 L 373.5 71.0 L 374.5 72.0 L 375.5 73.0 L 376.5 74.0 L 377.5 75.0 L 378.5 76.0 L 379.5 77.0 L 380.5 78.0 L 381.5 79.0 L 382.5 80.0 L 383.5 81.0 L 384.5 82.0 L 385.5 83.0 L 386.5 84.0 L 387.0 85.5 L 388.0 86.5 L 389.0 87.5 L 390.0 88.5 L 391.0 89.5 L 392.0 90.5 L 392.5 92.0 L 393.5 93.0 L 394.5 94.0 L 395.5 95.0 L 396.0 96.5 L 397.0 97.5 L 398.0 98.5 L 398.5 100.0 L 399.5 101.0 L 400.5 102.0 L 401.5 103.0 L 402.0 104.5 L 403.0 105.5 L 403.5 107.0 L 404.5 108.0 L 405.5 109.0 L 406.0 110.5 L 406.5 112.0 L 407.5 113.0 L 408.5 114.0 L 409.0 115.5 L 409.5 117.0 L 410.5 118.0 L 411.5 119.0 L 412.0 120.5 L 413.0 121.5 L 413.5 123.0 L 414.5 124.0 L 415.0 125.5 L 415.5 127.0 L 416.5 128.0 L 417.0 129.5 L 417.5 131.0 L 418.5 132.0 L 419.0 133.5 L 419.5 135.0 L 420.5 136.0 L 421.0 137.5 L 421.5 139.0 L 422.0 140.5 L 422.5 142.0 L 423.5 143.0 L 424.0 144.5 L 424.5 146.0 L 425.0 147.5 L 425.5 149.0 L 426.5 150.0 L 426.5 152.0 L 427.5 153.0 L 427.5 155.0 L 428.5 156.0 L 428.5 158.0 L 429.5 159.0 L 429.5 161.0 L 430.5 162.0 L 430.5 164.0 L 431.5 165.0 L 431.5 167.0 L 432.0 168.5 L 432.5 170.0 L 433.0 171.5 L 433.5 173.0 L 433.5 175.0 L 434.5 176.0 L 434.5 178.0 L 434.5 180.0 L 435.5 181.0 L 435.5 183.0 L 435.5 185.0 L 436.5 186.0 L 436.5 188.0 L 436.5 190.0 L 437.5 191.0 L 437.5 193.0 L 437.5 195.0 L 437.5 197.0 L 438.5 198.0 L 438.5 200.0 L 438.5 202.0 L 438.5 204.0 L 438.5 206.0 L 439.5 207.0 L 439.5 209.0 L 439.5 211.0 L 439.5 213.0 L 439.5 215.0 L 439.5 217.0 L 439.5 219.0 L 439.5 221.0 L 439.5 223.0 L 439.5 225.0 L 439.5 227.0 L 439.5 229.0 L 439.5 231.0 L 439.5 233.0 L 439.5 235.0 L 439.5 237.0 L 439.5 239.0 L 439.5 241.0 L 439.5 243.0 L 439.0 244.5 L 438.5 246.0 L 438.5 248.0 L 438.5 250.0 L 438.5 252.0 L 438.0 253.5 L 437.5 255.0 L 437.5 257.0 L 437.5 259.0 L 437.0 260.5 L 436.5 262.0 L 436.5 264.0 L 436.5 266.0 L 435.5 267.0 L 435.5 269.0 L 435.0 270.5 L 434.5 272.0 L 434.5 274.0 L 434.0 275.5 L 433.5 277.0 L 433.5 279.0 L 432.5 280.0 L 432.5 282.0 L 431.5 283.0 L 431.5 285.0 L 431.0 286.5 L 430.5 288.0 L 430.0 289.5 L 429.5 291.0 L 429.0 292.5 L 428.5 294.0 L 428.0 295.5 L 427.5 297.0 L 427.0 298.5 L 426.5 300.0 L 426.0 301.5 L 425.5 303.0 L 424.5 304.0 L 424.5 306.0 L 423.5 307.0 L 423.0 308.5 L 422.5 310.0 L 422.0 311.5 L 421.5 313.0 L 420.5 314.0 L 420.0 315.5 L 419.5 317.0 L 418.5 318.0 L 418.0 319.5 L 417.5 321.0 L 416.5 322.0 L 416.0 323.5 L 415.5 325.0 L 414.5 326.0 L 414.0 327.5 L 413.5 329.0 L 412.5 330.0 L 412.0 331.5 L 411.0 332.5 L 410.5 334.0 L 409.5 335.0 L 409.0 336.5 L 408.0 337.5 L 407.5 339.0 L 406.5 340.0 L 405.5 341.0 L 405.0 342.5 L 404.5 344.0 L 403.5 345.0 L 402.5 346.0 L 401.5 347.0 L 401.0 348.5 L 400.0 349.5 L 399.0 350.5 L 398.5 352.0 L 397.5 353.0 L 396.5 354.0 L 395.5 355.0 L 395.0 356.5 L 394.0 357.5 L 393.0 358.5 L 392.5 360.0 L 391.5 361.0 L 390.5 362.0 L 389.5 363.0 L 388.5 364.0 L 387.5 365.0 L 387.0 366.5 L 386.0 367.5 L 385.0 368.5 L 384.0 369.5 L 383.0 370.5 L 382.0 371.5 L 381.0 372.5 L 380.0 373.5 L 379.0 374.5 L 378.0 375.5 L 377.0 376.5 L 376.0 377.5 L 375.0 378.5 L 374.0 379.5 L 373.0 380.5 L 372.0 381.5 L 371.0 382.5 L 370.0 383.5 L 369.0 384.5 L 368.0 385.5 L 367.0 386.5 L 366.0 387.5 L 364.5 388.0 L 363.5 389.0 L 362.5 390.0 L 361.5 391.0 L 360.5 392.0 L 359.0 392.5 L 358.0 393.5 L 357.0 394.5 L 356.0 395.5 L 354.5 396.0 L 353.5 397.0 L 352.5 398.0 L 351.0 398.5 L 350.0 399.5 L 349.0 400.5 L 348.0 401.5 L 346.5 402.0 L 345.5 403.0 L 344.0 403.5 L 343.0 404.5 L 342.0 405.5 L 340.5 406.0 L 339.5 407.0 L 338.0 407.5 L 337.0 408.5 L 335.5 409.0 L 334.5 410.0 L 333.0 410.5 L 332.0 411.5 L 330.5 412.0 L 329.5 413.0 L 328.0 413.5 L 327.0 414.5 L 325.5 415.0 L 324.0 415.5 L 323.0 416.5 L 321.5 417.0 L 320.0 417.5 L 319.0 418.5 L 317.5 419.0 L 316.0 419.5 L 315.0 420.5 L 313.5 421.0 L 312.0 421.5 L 311.0 422.5 L 309.0 422.5 L 308.0 423.5 L 306.5 424.0 L 305.0 424.5 L 303.5 425.0 L 302.0 425.5 L 301.0 426.5 L 299.0 426.5 L 298.0 427.5 L 296.0 427.5 L 295.0 428.5 L 293.0 428.5 L 292.0 429.5 L 290.0 429.5 L 289.0 430.5 L 287.0 430.5 L 286.0 431.5 L 284.0 431.5 L 282.5 432.0 L 281.0 432.5 L 279.5 433.0 L 278.0 433.5 L 276.0 433.5 L 275.0 434.5 L 273.0 434.5 L 271.0 434.5 L 270.0 435.5 L 268.0 435.5 L 266.0 435.5 L 265.0 436.5 L 263.0 436.5 L 261.0 436.5 L 260.0 437.5 L 258.0 437.5 L 256.0 437.5 L 254.0 437.5 L 253.0 438.5 L 251.0 438.5 L 249.0 438.5 L 247.0 438.5 L 245.0 438.5 L 244.0 439.5 Z M 244.5 432.0 L 246.0 431.5 L 248.0 431.5 L 250.0 431.5 L 252.0 431.5 L 253.5 431.0 L 255.0 430.5 L 257.0 430.5 L 259.0 430.5 L 260.0 429.5 L 262.0 429.5 L 264.0 429.5 L 265.5 429.0 L 267.0 428.5 L 269.0 428.5 L 270.5 428.0 L 272.0 427.5 L 274.0 427.5 L 275.0 426.5 L 277.0 426.5 L 278.5 426.0 L 280.0 425.5 L 282.0 425.5 L 283.0 424.5 L 285.0 424.5 L 286.0 423.5 L 288.0 423.5 L 289.0 422.5 L 291.0 422.5 L 292.0 421.5 L 294.0 421.5 L 295.0 420.5 L 297.0 420.5 L 298.0 419.5 L 299.5 419.0 L 301.0 418.5 L 302.5 418.0 L 304.0 417.5 L 305.5 417.0 L 307.0 416.5 L 308.0 415.5 L 309.5 415.0 L 311.0 414.5 L 312.0 413.5 L 313.5 413.0 L 315.0 412.5 L 316.0 411.5 L 317.5 411.0 L 319.0 410.5 L 320.0 409.5 L 321.5 409.0 L 323.0 408.5 L 324.0 407.5 L 325.5 407.0 L 327.0 406.5 L 328.0 405.5 L 329.0 404.5 L 330.5 404.0 L 332.0 403.5 L 333.0 402.5 L 334.0 401.5 L 335.5 401.0 L 337.0 400.5 L 338.0 399.5 L 339.0 398.5 L 340.5 398.0 L 341.5 397.0 L 343.0 396.5 L 344.0 395.5 L 345.0 394.5 L 346.0 393.5 L 347.5 393.0 L 348.5 392.0 L 349.5 391.0 L 351.0 390.5 L 352.0 389.5 L 353.0 388.5 L 354.0 387.5 L 355.5 387.0 L 356.5 386.0 L 357.5 385.0 L 358.5 384.0 L 359.5 383.0 L 361.0 382.5 L 362.0 381.5 L 363.0 380.5 L 364.0 379.5 L 365.0 378.5 L 366.0 377.5 L 367.0 376.5 L 368.0 375.5 L 369.0 374.5 L 370.0 373.5 L 371.0 372.5 L 372.5 372.0 L 373.0 370.5 L 374.0 369.5 L 375.0 368.5 L 376.0 367.5 L 377.0 366.5 L 378.0 365.5 L 379.0 364.5 L 380.0 363.5 L 381.0 362.5 L 382.0 361.5 L 382.5 360.0 L 383.5 359.0 L 384.5 358.0 L 385.5 357.0 L 386.5 356.0 L 387.5 355.0 L 388.0 353.5 L 389.0 352.5 L 390.0 351.5 L 390.5 350.0 L 391.5 349.0 L 392.5 348.0 L 393.5 347.0 L 394.0 345.5 L 395.0 344.5 L 396.0 343.5 L 396.5 342.0 L 397.5 341.0 L 398.5 340.0 L 399.0 338.5 L 399.5 337.0 L 400.5 336.0 L 401.5 335.0 L 402.0 333.5 L 403.0 332.5 L 403.5 331.0 L 404.5 330.0 L 405.0 328.5 L 406.0 327.5 L 406.5 326.0 L 407.5 325.0 L 408.0 323.5 L 408.5 322.0 L 409.5 321.0 L 410.0 319.5 L 410.5 318.0 L 411.5 317.0 L 412.0 315.5 L 412.5 314.0 L 413.5 313.0 L 414.0 311.5 L 414.5 310.0 L 415.5 309.0 L 416.0 307.5 L 416.5 306.0 L 417.0 304.5 L 417.5 303.0 L 418.5 302.0 L 418.5 300.0 L 419.5 299.0 L 420.0 297.5 L 420.5 296.0 L 421.0 294.5 L 421.5 293.0 L 422.0 291.5 L 422.5 290.0 L 423.0 288.5 L 423.5 287.0 L 424.0 285.5 L 424.5 284.0 L 424.5 282.0 L 425.5 281.0 L 425.5 279.0 L 426.5 278.0 L 426.5 276.0 L 426.5 274.0 L 427.5 273.0 L 427.5 271.0 L 428.0 269.5 L 428.5 268.0 L 428.5 266.0 L 429.0 264.5 L 429.5 263.0 L 429.5 261.0 L 430.0 259.5 L 430.5 258.0 L 430.5 256.0 L 430.5 254.0 L 430.5 252.0 L 431.5 251.0 L 431.5 249.0 L 431.5 247.0 L 431.5 245.0 L 431.5 243.0 L 432.5 242.0 L 432.5 240.0 L 432.5 238.0 L 432.5 236.0 L 432.5 234.0 L 432.5 232.0 L 432.5 230.0 L 432.5 228.0 L 432.5 226.0 L 432.5 224.0 L 432.5 222.0 L 432.5 220.0 L 432.5 218.0 L 432.5 216.0 L 432.5 214.0 L 432.5 212.0 L 432.5 210.0 L 432.0 208.5 L 431.5 207.0 L 431.5 205.0 L 431.5 203.0 L 431.5 201.0 L 431.0 199.5 L 430.5 198.0 L 430.5 196.0 L 430.5 194.0 L 430.0 192.5 L 429.5 191.0 L 429.5 189.0 L 429.5 187.0 L 428.5 186.0 L 428.5 184.0 L 428.5 182.0 L 427.5 181.0 L 427.5 179.0 L 427.0 177.5 L 426.5 176.0 L 426.5 174.0 L 425.5 173.0 L 425.5 171.0 L 425.0 169.5 L 424.5 168.0 L 424.0 166.5 L 423.5 165.0 L 423.5 163.0 L 422.5 162.0 L 422.5 160.0 L 421.5 159.0 L 421.5 157.0 L 420.5 156.0 L 420.0 154.5 L 419.5 153.0 L 419.0 151.5 L 418.5 150.0 L 417.5 149.0 L 417.5 147.0 L 416.5 146.0 L 416.0 144.5 L 415.5 143.0 L 414.5 142.0 L 414.5 140.0 L 413.5 139.0 L 413.0 137.5 L 412.5 136.0 L 411.5 135.0 L 411.0 133.5 L 410.5 132.0 L 409.5 131.0 L 409.0 129.5 L 408.5 128.0 L 407.5 127.0 L 407.0 125.5 L 406.0 124.5 L 405.5 123.0 L 404.5 122.0 L 404.0 120.5 L 403.0 119.5 L 402.5 118.0 L 401.5 117.0 L 401.0 115.5 L 400.0 114.5 L 399.5 113.0 L 398.5 112.0 L 398.0 110.5 L 397.0 109.5 L 396.0 108.5 L 395.5 107.0 L 394.5 106.0 L 393.5 105.0 L 392.5 104.0 L 392.0 102.5 L 391.0 101.5 L 390.0 100.5 L 389.5 99.0 L 388.5 98.0 L 387.5 97.0 L 386.5 96.0 L 386.0 94.5 L 385.0 93.5 L 384.0 92.5 L 383.0 91.5 L 382.0 90.5 L 381.0 89.5 L 380.5 88.0 L 379.5 87.0 L 378.5 86.0 L 377.5 85.0 L 376.5 84.0 L 375.5 83.0 L 374.5 82.0 L 373.5 81.0 L 372.5 80.0 L 371.5 79.0 L 370.5 78.0 L 369.5 77.0 L 368.5 76.0 L 367.5 75.0 L 366.5 74.0 L 365.5 73.0 L 364.5 72.0 L 363.5 71.0 L 362.0 70.5 L 361.0 69.5 L 360.0 68.5 L 359.0 67.5 L 358.0 66.5 L 357.0 65.5 L 356.0 64.5 L 354.5 64.0 L 353.5 63.0 L 352.5 62.0 L 351.0 61.5 L 350.0 60.5 L 349.0 59.5 L 348.0 58.5 L 346.5 58.0 L 345.5 57.0 L 344.5 56.0 L 343.0 55.5 L 342.0 54.5 L 341.0 53.5 L 340.0 52.5 L 338.5 52.0 L 337.0 51.5 L 336.0 50.5 L 335.0 49.5 L 333.5 49.0 L 332.0 48.5 L 331.0 47.5 L 330.0 46.5 L 328.5 46.0 L 327.0 45.5 L 326.0 44.5 L 325.0 43.5 L 323.5 43.0 L 322.0 42.5 L 321.0 41.5 L 319.5 41.0 L 318.0 40.5 L 317.0 39.5 L 315.5 39.0 L 314.0 38.5 L 313.0 37.5 L 311.5 37.0 L 310.0 36.5 L 308.5 36.0 L 307.0 35.5 L 306.0 34.5 L 304.5 34.0 L 303.0 33.5 L 302.0 32.5 L 300.0 32.5 L 299.0 31.5 L 297.0 31.5 L 296.0 30.5 L 294.5 30.0 L 293.0 29.5 L 291.5 29.0 L 290.0 28.5 L 288.5 28.0 L 287.0 27.5 L 285.0 27.5 L 284.0 26.5 L 282.0 26.5 L 281.0 25.5 L 279.0 25.5 L 277.5 25.0 L 276.0 24.5 L 274.0 24.5 L 273.0 23.5 L 271.0 23.5 L 269.5 23.0 L 268.0 22.5 L 266.0 22.5 L 264.5 22.0 L 263.0 21.5 L 261.0 21.5 L 259.0 21.5 L 258.0 20.5 L 256.0 20.5 L 254.0 20.5 L 252.0 20.5 L 251.0 19.5 L 249.0 19.5 L 247.0 19.5 L 245.0 19.5 L 243.0 19.5 L 242.0 18.5 L 240.0 18.5 L 238.0 18.5 L 236.0 18.5 L 234.0 18.5 L 232.0 18.5 L 230.0 18.5 L 228.0 18.5 L 226.0 18.5 L 224.0 18.5 L 222.0 18.5 L 220.0 18.5 L 218.0 18.5 L 216.0 18.5 L 214.0 18.5 L 212.0 18.5 L 210.0 18.5 L 208.5 19.0 L 207.0 19.5 L 205.0 19.5 L 203.0 19.5 L 201.0 19.5 L 199.5 20.0 L 198.0 20.5 L 196.0 20.5 L 194.0 20.5 L 192.5 21.0 L 191.0 21.5 L 189.0 21.5 L 187.0 21.5 L 186.0 22.5 L 184.0 22.5 L 182.0 22.5 L 181.0 23.5 L 179.0 23.5 L 177.5 24.0 L 176.0 24.5 L 174.0 24.5 L 173.0 25.5 L 171.0 25.5 L 170.0 26.5 L 168.0 26.5 L 166.5 27.0 L 165.0 27.5 L 163.5 28.0 L 162.0 28.5 L 160.5 29.0 L 159.0 29.5 L 157.5 30.0 L 156.0 30.5 L 155.0 31.5 L 153.0 31.5 L 152.0 32.5 L 150.0 32.5 L 149.0 33.5 L 147.5 34.0 L 146.0 34.5 L 144.5 35.0 L 143.0 35.5 L 142.0 36.5 L 140.5 37.0 L 139.0 37.5 L 138.0 38.5 L 136.5 39.0 L 135.0 39.5 L 134.0 40.5 L 132.5 41.0 L 131.0 41.5 L 130.0 42.5 L 128.5 43.0 L 127.0 43.5 L 126.0 44.5 L 124.5 45.0 L 123.5 46.0 L 122.0 46.5 L 121.0 47.5 L 119.5 48.0 L 118.5 49.0 L 117.0 49.5 L 116.0 50.5 L 114.5 51.0 L 113.5 52.0 L 112.0 52.5 L 111.0 53.5 L 109.5 54.0 L 108.5 55.0 L 107.5 56.0 L 106.0 56.5 L 105.0 57.5 L 104.0 58.5 L 103.0 59.5 L 101.5 60.0 L 100.5 61.0 L 99.5 62.0 L 98.0 62.5 L 97.0 63.5 L 96.0 64.5 L 95.0 65.5 L 93.5 66.0 L 92.5 67.0 L 91.5 68.0 L 90.5 69.0 L 89.5 70.0 L 88.5 71.0 L 87.5 72.0 L 86.5 73.0 L 85.5 74.0 L 84.5 75.0 L 83.0 75.5 L 82.0 76.5 L 81.0 77.5 L 80.0 78.5 L 79.0 79.5 L 78.0 80.5 L 77.0 81.5 L 76.0 82.5 L 75.5 84.0 L 74.5 85.0 L 73.5 86.0 L 72.5 87.0 L 71.5 88.0 L 70.5 89.0 L 69.5 90.0 L 68.5 91.0 L 67.5 92.0 L 66.5 93.0 L 65.5 94.0 L 65.0 95.5 L 64.0 96.5 L 63.0 97.5 L 62.5 99.0 L 61.5 100.0 L 60.5 101.0 L 59.5 102.0 L 59.0 103.5 L 58.0 104.5 L 57.0 105.5 L 56.5 107.0 L 55.5 108.0 L 54.5 109.0 L 53.5 110.0 L 53.0 111.5 L 52.5 113.0 L 51.5 114.0 L 50.5 115.0 L 50.0 116.5 L 49.5 118.0 L 48.5 119.0 L 47.5 120.0 L 47.0 121.5 L 46.0 122.5 L 45.5 124.0 L 44.5 125.0 L 44.0 126.5 L 43.5 128.0 L 42.5 129.0 L 42.0 130.5 L 41.5 132.0 L 40.5 133.0 L 40.0 134.5 L 39.5 136.0 L 38.5 137.0 L 38.0 138.5 L 37.5 140.0 L 36.5 141.0 L 36.0 142.5 L 35.5 144.0 L 34.5 145.0 L 34.0 146.5 L 33.5 148.0 L 33.0 149.5 L 32.5 151.0 L 31.5 152.0 L 31.5 154.0 L 30.5 155.0 L 30.5 157.0 L 29.5 158.0 L 29.5 160.0 L 28.5 161.0 L 28.5 163.0 L 27.5 164.0 L 27.5 166.0 L 26.5 167.0 L 26.5 169.0 L 25.5 170.0 L 25.5 172.0 L 25.0 173.5 L 24.5 175.0 L 24.5 177.0 L 23.5 178.0 L 23.5 180.0 L 23.0 181.5 L 22.5 183.0 L 22.5 185.0 L 22.0 186.5 L 21.5 188.0 L 21.5 190.0 L 21.5 192.0 L 20.5 193.0 L 20.5 195.0 L 20.5 197.0 L 20.5 199.0 L 19.5 200.0 L 19.5 202.0 L 19.5 204.0 L 19.5 206.0 L 19.5 208.0 L 18.5 209.0 L 18.5 211.0 L 18.5 213.0 L 18.5 215.0 L 18.5 217.0 L 18.5 219.0 L 18.5 221.0 L 18.5 223.0 L 18.5 225.0 L 18.5 227.0 L 18.5 229.0 L 18.5 231.0 L 18.5 233.0 L 18.5 235.0 L 18.5 237.0 L 18.5 239.0 L 18.5 241.0 L 19.0 242.5 L 19.5 244.0 L 19.5 246.0 L 19.5 248.0 L 19.5 250.0 L 20.0 251.5 L 20.5 253.0 L 20.5 255.0 L 20.5 257.0 L 21.0 258.5 L 21.5 260.0 L 21.5 262.0 L 21.5 264.0 L 22.5 265.0 L 22.5 267.0 L 22.5 269.0 L 23.5 270.0 L 23.5 272.0 L 24.0 273.5 L 24.5 275.0 L 24.5 277.0 L 25.5 278.0 L 25.5 280.0 L 26.0 281.5 L 26.5 283.0 L 27.0 284.5 L 27.5 286.0 L 28.0 287.5 L 28.5 289.0 L 29.0 290.5 L 29.5 292.0 L 30.0 293.5 L 30.5 295.0 L 31.0 296.5 L 31.5 298.0 L 32.0 299.5 L 32.5 301.0 L 33.5 302.0 L 33.5 304.0 L 34.5 305.0 L 35.0 306.5 L 35.5 308.0 L 36.5 309.0 L 37.0 310.5 L 37.5 312.0 L 38.5 313.0 L 39.0 314.5 L 39.5 316.0 L 40.5 317.0 L 40.5 319.0 L 41.5 320.0 L 42.0 321.5 L 42.5 323.0 L 43.5 324.0 L 44.5 325.0 L 45.0 326.5 L 45.5 328.0 L 46.5 329.0 L 47.5 330.0 L 48.0 331.5 L 48.5 333.0 L 49.5 334.0 L 50.5 335.0 L 51.0 336.5 L 51.5 338.0 L 52.5 339.0 L 53.5 340.0 L 54.0 341.5 L 55.0 342.5 L 56.0 343.5 L 56.5 345.0 L 57.5 346.0 L 58.5 347.0 L 59.5 348.0 L 60.0 349.5 L 61.0 350.5 L 62.0 351.5 L 62.5 353.0 L 63.5 354.0 L 64.5 355.0 L 65.5 356.0 L 66.0 357.5 L 67.0 358.5 L 68.0 359.5 L 69.0 360.5 L 70.0 361.5 L 71.0 362.5 L 72.0 363.5 L 73.0 364.5 L 73.5 366.0 L 74.5 367.0 L 75.5 368.0 L 76.5 369.0 L 77.5 370.0 L 78.5 371.0 L 79.5 372.0 L 80.5 373.0 L 81.5 374.0 L 82.5 375.0 L 83.5 376.0 L 84.5 377.0 L 85.5 378.0 L 87.0 378.5 L 88.0 379.5 L 89.0 380.5 L 90.0 381.5 L 91.0 382.5 L 92.0 383.5 L 93.0 384.5 L 94.0 385.5 L 95.0 386.5 L 96.5 387.0 L 97.5 388.0 L 98.5 389.0 L 100.0 389.5 L 101.0 390.5 L 102.0 391.5 L 103.0 392.5 L 104.5 393.0 L 105.5 394.0 L 106.5 395.0 L 108.0 395.5 L 109.0 396.5 L 110.0 397.5 L 111.5 398.0 L 112.5 399.0 L 114.0 399.5 L 115.0 400.5 L 116.5 401.0 L 117.5 402.0 L 119.0 402.5 L 120.0 403.5 L 121.0 404.5 L 122.5 405.0 L 124.0 405.5 L 125.0 406.5 L 126.0 407.5 L 127.5 408.0 L 129.0 408.5 L 130.0 409.5 L 131.5 410.0 L 133.0 410.5 L 134.0 411.5 L 135.5 412.0 L 137.0 412.5 L 138.0 413.5 L 140.0 413.5 L 141.0 414.5 L 142.5 415.0 L 144.0 415.5 L 145.0 416.5 L 146.5 417.0 L 148.0 417.5 L 149.0 418.5 L 151.0 418.5 L 152.0 419.5 L 153.5 420.0 L 155.0 420.5 L 156.5 421.0 L 158.0 421.5 L 159.5 422.0 L 161.0 422.5 L 162.5 423.0 L 164.0 423.5 L 165.5 424.0 L 167.0 424.5 L 169.0 424.5 L 170.0 425.5 L 172.0 425.5 L 173.0 426.5 L 175.0 426.5 L 176.5 427.0 L 178.0 427.5 L 180.0 427.5 L 181.5 428.0 L 183.0 428.5 L 185.0 428.5 L 186.0 429.5 L 188.0 429.5 L 190.0 429.5 L 191.5 430.0 L 193.0 430.5 L 195.0 430.5 L 197.0 430.5 L 198.0 431.5 L 200.0 431.5 L 202.0 431.5 L 204.0 431.5 L 206.0 431.5 L 207.0 432.5 L 209.0 432.5 L 211.0 432.5 L 213.0 432.5 L 215.0 432.5 L 217.0 432.5 L 219.0 432.5 L 221.0 432.5 L 223.0 432.5 L 225.0 432.5 L 227.0 432.5 L 229.0 432.5 L 231.0 432.5 L 233.0 432.5 L 235.0 432.5 L 237.0 432.5 L 239.0 432.5 L 241.0 432.5 L 243.0 432.5 L 244.5 432.0 Z M 279.0 407.5 L 277.0 407.5 L 275.0 407.5 L 273.0 407.5 L 271.0 407.5 L 269.0 407.5 L 267.0 407.5 L 265.0 407.5 L 263.0 407.5 L 262.0 406.5 L 260.0 406.5 L 259.0 405.5 L 259.0 404.5 L 259.5 403.0 L 260.5 402.0 L 261.0 400.5 L 262.0 399.5 L 263.0 398.5 L 264.0 397.5 L 265.0 396.5 L 266.0 395.5 L 267.0 394.5 L 268.5 394.0 L 269.5 393.0 L 270.5 392.0 L 271.5 391.0 L 272.5 390.0 L 273.5 389.0 L 274.5 388.0 L 275.5 387.0 L 277.0 386.5 L 278.0 385.5 L 280.0 385.5 L 281.0 384.5 L 282.5 384.0 L 284.0 383.5 L 285.0 382.5 L 286.0 381.5 L 287.0 380.5 L 288.0 379.5 L 288.5 378.0 L 289.5 377.0 L 290.0 375.5 L 290.5 374.0 L 291.0 372.5 L 291.5 371.0 L 292.0 369.5 L 292.5 368.0 L 292.5 366.0 L 293.5 365.0 L 293.5 363.0 L 294.0 361.5 L 294.5 360.0 L 294.5 358.0 L 294.5 356.0 L 294.5 354.0 L 294.5 352.0 L 294.5 350.0 L 294.5 348.0 L 293.5 347.0 L 293.5 345.0 L 292.5 344.0 L 292.0 342.5 L 291.5 341.0 L 290.5 340.0 L 289.5 339.0 L 288.5 338.0 L 288.0 336.5 L 287.0 335.5 L 286.0 334.5 L 284.0 334.5 L 283.0 335.5 L 282.0 336.5 L 280.0 336.5 L 279.0 337.5 L 277.0 337.5 L 275.5 338.0 L 274.0 338.5 L 272.0 338.5 L 270.0 338.5 L 269.0 339.5 L 267.0 339.5 L 265.0 339.5 L 263.5 340.0 L 262.0 340.5 L 260.0 340.5 L 259.0 341.5 L 257.0 341.5 L 256.0 342.5 L 254.5 343.0 L 253.5 344.0 L 252.0 344.5 L 251.0 345.5 L 249.5 346.0 L 248.5 347.0 L 247.0 347.5 L 246.0 348.5 L 245.0 349.5 L 243.5 350.0 L 242.5 351.0 L 241.0 351.5 L 240.0 352.5 L 238.5 353.0 L 237.0 353.5 L 235.0 353.5 L 234.5 352.0 L 234.0 350.5 L 233.0 351.5 L 232.0 352.5 L 231.5 351.0 L 232.0 349.5 L 232.5 348.0 L 232.5 346.0 L 232.0 344.5 L 230.5 345.0 L 229.5 346.0 L 229.5 348.0 L 229.5 350.0 L 229.5 352.0 L 228.5 353.0 L 228.0 354.5 L 227.0 355.5 L 226.0 356.5 L 225.0 357.5 L 223.5 358.0 L 222.0 358.5 L 221.0 359.5 L 219.5 360.0 L 218.0 360.5 L 216.5 361.0 L 215.0 361.5 L 213.5 362.0 L 212.0 362.5 L 210.0 362.5 L 208.0 362.5 L 207.0 361.5 L 206.5 360.0 L 207.5 359.0 L 208.0 357.5 L 208.5 356.0 L 209.0 354.5 L 209.5 353.0 L 210.0 351.5 L 210.5 350.0 L 211.0 348.5 L 211.5 347.0 L 212.0 345.5 L 212.5 344.0 L 213.5 343.0 L 214.5 342.0 L 215.5 341.0 L 216.5 340.0 L 218.0 339.5 L 219.0 338.5 L 220.0 337.5 L 221.0 336.5 L 222.0 335.5 L 223.0 334.5 L 224.0 333.5 L 225.5 333.0 L 226.5 332.0 L 227.5 331.0 L 229.0 330.5 L 230.0 329.5 L 232.0 329.5 L 234.0 329.5 L 236.0 329.5 L 238.0 329.5 L 240.0 329.5 L 242.0 329.5 L 243.5 330.0 L 245.0 330.5 L 247.0 330.5 L 249.0 330.5 L 250.5 330.0 L 252.0 329.5 L 254.0 329.5 L 256.0 329.5 L 258.0 329.5 L 259.0 328.5 L 261.0 328.5 L 262.0 327.5 L 263.5 327.0 L 265.0 326.5 L 266.0 325.5 L 267.0 324.5 L 267.5 323.0 L 267.5 321.0 L 267.0 319.5 L 266.0 318.5 L 265.0 317.5 L 264.5 316.0 L 263.5 315.0 L 263.0 313.5 L 262.5 312.0 L 261.5 311.0 L 261.5 309.0 L 261.5 307.0 L 261.5 305.0 L 260.5 304.0 L 259.5 303.0 L 258.5 302.0 L 257.5 301.0 L 257.0 299.5 L 256.0 298.5 L 255.5 297.0 L 254.5 296.0 L 254.5 294.0 L 254.5 292.0 L 254.5 290.0 L 254.5 288.0 L 254.0 286.5 L 253.5 285.0 L 252.5 284.0 L 251.5 283.0 L 250.0 282.5 L 249.0 281.5 L 247.0 281.5 L 245.0 281.5 L 244.0 282.5 L 242.0 282.5 L 240.0 282.5 L 238.0 282.5 L 236.0 282.5 L 234.0 282.5 L 232.0 282.5 L 230.0 282.5 L 228.0 282.5 L 226.0 282.5 L 224.0 282.5 L 222.0 282.5 L 220.0 282.5 L 218.0 282.5 L 216.5 282.0 L 215.0 281.5 L 213.0 281.5 L 211.0 281.5 L 209.0 281.5 L 208.0 280.5 L 206.0 280.5 L 204.5 280.0 L 203.0 279.5 L 201.0 279.5 L 200.0 278.5 L 198.5 278.0 L 197.0 277.5 L 195.5 277.0 L 194.0 276.5 L 193.0 275.5 L 191.5 275.0 L 190.0 274.5 L 188.5 274.0 L 187.0 273.5 L 186.0 272.5 L 184.0 272.5 L 183.0 271.5 L 181.5 271.0 L 180.0 270.5 L 178.5 270.0 L 177.0 269.5 L 175.5 269.0 L 174.0 268.5 L 172.0 268.5 L 170.5 268.0 L 169.0 267.5 L 167.0 267.5 L 166.0 266.5 L 164.0 266.5 L 162.0 266.5 L 160.5 266.0 L 159.0 265.5 L 157.0 265.5 L 155.0 265.5 L 153.0 265.5 L 152.0 264.5 L 150.0 264.5 L 148.0 264.5 L 146.0 264.5 L 144.0 264.5 L 143.0 263.5 L 141.0 263.5 L 139.0 263.5 L 137.0 263.5 L 136.0 262.5 L 134.0 262.5 L 132.0 262.5 L 130.5 262.0 L 129.0 261.5 L 127.0 261.5 L 125.5 261.0 L 124.0 260.5 L 122.0 260.5 L 120.0 260.5 L 118.0 260.5 L 117.0 261.5 L 116.5 263.0 L 115.5 264.0 L 115.5 266.0 L 115.5 268.0 L 116.0 269.5 L 116.5 271.0 L 117.5 272.0 L 118.0 273.5 L 119.0 274.5 L 120.0 275.5 L 121.5 276.0 L 123.0 276.5 L 124.5 277.0 L 126.0 277.5 L 127.0 278.5 L 129.0 278.5 L 130.0 279.5 L 131.0 280.5 L 132.0 281.5 L 133.0 282.5 L 133.0 283.5 L 132.5 285.0 L 133.0 286.5 L 133.0 287.5 L 132.0 288.5 L 131.0 289.5 L 130.0 290.5 L 130.0 291.5 L 131.0 292.5 L 132.0 291.5 L 134.0 291.5 L 136.0 291.5 L 137.0 292.5 L 138.5 293.0 L 139.5 294.0 L 140.0 295.5 L 140.5 297.0 L 141.5 298.0 L 141.5 300.0 L 142.5 301.0 L 142.5 303.0 L 142.5 305.0 L 143.5 306.0 L 143.0 307.5 L 142.5 309.0 L 142.0 310.5 L 141.0 311.5 L 139.0 311.5 L 138.0 310.5 L 137.0 309.5 L 135.5 309.0 L 134.0 308.5 L 133.0 307.5 L 131.5 307.0 L 130.0 306.5 L 129.0 307.5 L 128.0 306.5 L 126.5 306.0 L 125.5 305.0 L 124.5 304.0 L 123.5 303.0 L 122.5 302.0 L 122.0 300.5 L 121.0 299.5 L 119.5 299.0 L 118.0 298.5 L 117.0 297.5 L 115.5 297.0 L 114.5 296.0 L 113.0 295.5 L 112.0 294.5 L 111.0 293.5 L 110.0 292.5 L 109.5 291.0 L 108.5 290.0 L 108.5 288.0 L 108.5 286.0 L 108.5 284.0 L 108.5 282.0 L 108.0 280.5 L 107.5 279.0 L 107.5 277.0 L 107.0 275.5 L 106.5 274.0 L 106.5 272.0 L 105.5 271.0 L 105.5 269.0 L 104.5 268.0 L 104.0 266.5 L 103.5 265.0 L 103.0 263.5 L 102.5 262.0 L 102.0 260.5 L 101.5 259.0 L 101.5 257.0 L 100.5 256.0 L 100.5 254.0 L 101.0 252.5 L 101.5 251.0 L 102.5 250.0 L 103.0 248.5 L 104.0 247.5 L 105.0 246.5 L 106.0 245.5 L 108.0 245.5 L 110.0 245.5 L 112.0 245.5 L 114.0 245.5 L 116.0 245.5 L 118.0 245.5 L 120.0 245.5 L 122.0 245.5 L 124.0 245.5 L 124.5 244.0 L 123.5 243.0 L 122.5 242.0 L 121.5 241.0 L 120.5 240.0 L 119.5 239.0 L 119.0 237.5 L 118.0 236.5 L 117.5 235.0 L 116.5 234.0 L 116.0 232.5 L 115.5 231.0 L 114.5 230.0 L 114.0 228.5 L 112.0 228.5 L 110.5 229.0 L 109.0 229.5 L 108.0 230.5 L 106.0 230.5 L 105.0 231.5 L 103.5 232.0 L 102.0 232.5 L 101.0 233.5 L 100.0 234.5 L 99.0 235.5 L 98.0 236.5 L 97.0 237.5 L 96.0 238.5 L 95.5 240.0 L 94.5 241.0 L 94.0 242.5 L 93.5 244.0 L 93.5 246.0 L 93.0 247.5 L 92.5 249.0 L 93.0 250.5 L 93.5 252.0 L 92.5 252.0 L 91.0 251.5 L 90.0 250.5 L 88.0 250.5 L 87.5 252.0 L 88.5 253.0 L 89.0 254.5 L 90.0 255.5 L 91.0 256.5 L 91.5 258.0 L 92.5 259.0 L 92.5 261.0 L 92.0 262.5 L 91.5 264.0 L 90.5 265.0 L 90.0 266.5 L 89.5 268.0 L 89.0 269.5 L 88.5 271.0 L 87.5 272.0 L 87.0 273.5 L 86.5 275.0 L 85.5 276.0 L 84.0 276.5 L 82.5 276.0 L 82.0 274.5 L 81.5 273.0 L 80.5 272.0 L 80.5 270.0 L 79.5 269.0 L 79.0 267.5 L 78.5 266.0 L 77.5 265.0 L 77.0 263.5 L 76.5 262.0 L 76.5 260.0 L 76.5 258.0 L 76.5 256.0 L 76.5 254.0 L 76.5 252.0 L 75.5 251.0 L 75.5 249.0 L 75.0 247.5 L 74.5 246.0 L 74.5 244.0 L 75.5 243.0 L 76.0 241.5 L 76.5 240.0 L 77.5 239.0 L 78.5 238.0 L 80.0 237.5 L 81.0 236.5 L 82.0 235.5 L 83.5 235.0 L 84.5 234.0 L 85.5 233.0 L 86.5 232.0 L 87.5 231.0 L 88.5 230.0 L 89.5 229.0 L 90.5 228.0 L 91.5 227.0 L 92.5 226.0 L 93.5 225.0 L 94.5 224.0 L 95.5 223.0 L 96.5 222.0 L 97.5 221.0 L 98.5 220.0 L 99.5 219.0 L 100.5 218.0 L 101.5 217.0 L 102.5 216.0 L 103.5 215.0 L 104.5 214.0 L 106.0 213.5 L 107.0 212.5 L 108.5 212.0 L 110.0 211.5 L 112.0 211.5 L 113.0 212.5 L 114.5 213.0 L 116.0 213.5 L 117.0 214.5 L 118.0 215.5 L 119.0 216.5 L 120.0 217.5 L 120.5 219.0 L 121.5 220.0 L 122.5 221.0 L 124.0 221.5 L 125.0 222.5 L 126.5 223.0 L 128.0 223.5 L 129.0 224.5 L 130.5 225.0 L 132.0 225.5 L 133.0 226.5 L 134.5 227.0 L 135.5 228.0 L 137.0 228.5 L 138.0 229.5 L 139.0 230.5 L 140.0 231.5 L 141.5 232.0 L 143.0 232.5 L 143.5 231.0 L 144.5 230.0 L 145.0 228.5 L 145.5 227.0 L 146.0 225.5 L 146.5 224.0 L 147.5 223.0 L 147.5 221.0 L 148.5 220.0 L 148.5 218.0 L 149.5 217.0 L 149.5 215.0 L 150.5 214.0 L 150.5 212.0 L 151.5 211.0 L 151.5 209.0 L 151.0 207.5 L 150.5 206.0 L 150.5 204.0 L 149.5 203.0 L 149.5 201.0 L 149.5 199.0 L 149.0 197.5 L 148.5 196.0 L 148.5 194.0 L 149.5 193.0 L 149.5 191.0 L 149.5 189.0 L 149.5 187.0 L 149.5 185.0 L 149.5 183.0 L 149.5 181.0 L 149.5 179.0 L 149.5 177.0 L 149.5 175.0 L 149.5 173.0 L 148.5 172.0 L 148.5 170.0 L 148.5 168.0 L 147.5 167.0 L 147.0 165.5 L 146.5 164.0 L 145.5 163.0 L 144.5 162.0 L 143.5 162.0 L 142.0 162.5 L 141.0 163.5 L 140.0 164.5 L 139.0 165.5 L 138.0 166.5 L 137.0 167.5 L 135.5 168.0 L 134.0 168.5 L 133.0 169.5 L 131.5 170.0 L 130.5 171.0 L 130.5 173.0 L 129.5 174.0 L 128.5 175.0 L 127.5 176.0 L 127.5 178.0 L 127.0 179.5 L 126.5 181.0 L 125.5 182.0 L 124.0 182.5 L 123.0 183.5 L 121.0 183.5 L 119.0 183.5 L 117.0 183.5 L 115.5 183.0 L 114.0 182.5 L 113.0 181.5 L 111.0 181.5 L 110.0 180.5 L 109.0 179.5 L 108.5 178.0 L 107.5 177.0 L 106.5 176.0 L 105.5 175.0 L 104.5 174.0 L 104.5 172.0 L 105.5 171.0 L 106.0 169.5 L 106.5 168.0 L 107.0 166.5 L 107.5 165.0 L 108.5 164.0 L 109.0 162.5 L 109.5 161.0 L 110.5 160.0 L 111.0 158.5 L 111.5 157.0 L 112.0 155.5 L 112.5 154.0 L 113.0 152.5 L 113.5 151.0 L 114.5 150.0 L 114.5 148.0 L 115.5 147.0 L 116.0 145.5 L 116.5 144.0 L 117.5 143.0 L 117.5 141.0 L 116.5 140.0 L 116.5 138.0 L 116.5 136.0 L 117.0 134.5 L 117.5 133.0 L 118.0 131.5 L 118.5 130.0 L 118.5 128.0 L 118.5 126.0 L 117.5 125.0 L 118.5 124.0 L 117.0 123.5 L 116.0 124.5 L 115.0 125.5 L 114.5 127.0 L 113.5 127.0 L 113.5 125.0 L 113.5 123.0 L 114.5 122.0 L 115.0 120.5 L 115.5 119.0 L 116.5 118.0 L 117.5 117.0 L 119.0 116.5 L 120.0 115.5 L 122.0 115.5 L 122.5 114.0 L 122.5 112.0 L 122.5 110.0 L 122.5 108.0 L 123.0 106.5 L 124.5 107.0 L 126.0 107.5 L 127.0 108.5 L 128.0 109.5 L 129.5 110.0 L 130.5 111.0 L 132.0 111.5 L 133.0 112.5 L 134.0 113.5 L 135.5 113.0 L 135.0 111.5 L 134.5 110.0 L 134.0 108.5 L 133.5 107.0 L 134.0 105.5 L 136.0 105.5 L 137.0 106.5 L 138.5 107.0 L 140.0 107.5 L 141.0 108.5 L 142.0 109.5 L 143.5 110.0 L 144.5 110.0 L 145.5 109.0 L 147.0 108.5 L 149.0 108.5 L 151.0 108.5 L 153.0 108.5 L 154.5 109.0 L 156.0 109.5 L 158.0 109.5 L 159.0 110.5 L 161.0 110.5 L 162.5 111.0 L 164.0 111.5 L 165.5 112.0 L 167.0 112.5 L 168.0 113.5 L 170.0 113.5 L 171.0 114.5 L 172.5 115.0 L 174.0 115.5 L 175.0 116.5 L 176.5 117.0 L 177.5 118.0 L 179.0 118.5 L 180.0 119.5 L 181.5 120.0 L 182.5 121.0 L 183.5 122.0 L 184.5 123.0 L 186.0 123.5 L 187.0 124.5 L 188.0 125.5 L 189.0 126.5 L 190.0 127.5 L 191.0 128.5 L 192.0 129.5 L 193.0 130.5 L 193.0 131.5 L 191.5 131.0 L 190.5 130.0 L 189.0 129.5 L 188.0 128.5 L 187.0 127.5 L 185.5 127.0 L 184.5 126.0 L 183.5 126.0 L 184.5 127.0 L 185.0 128.5 L 186.0 129.5 L 187.0 130.5 L 188.0 131.5 L 189.0 132.5 L 189.5 134.0 L 190.5 135.0 L 191.5 136.0 L 192.5 137.0 L 193.5 138.0 L 194.5 139.0 L 195.0 140.5 L 196.0 141.5 L 197.0 142.5 L 197.5 144.0 L 198.5 145.0 L 199.5 146.0 L 200.5 147.0 L 201.0 148.5 L 202.0 149.5 L 203.0 150.5 L 203.5 152.0 L 204.5 153.0 L 205.5 154.0 L 206.5 155.0 L 207.0 156.5 L 208.0 157.5 L 208.5 159.0 L 209.5 160.0 L 210.0 161.5 L 211.0 162.5 L 211.5 164.0 L 212.5 165.0 L 213.0 166.5 L 213.5 168.0 L 214.5 169.0 L 215.0 170.5 L 215.5 172.0 L 216.5 173.0 L 217.0 174.5 L 218.0 175.5 L 218.5 177.0 L 219.5 178.0 L 220.5 179.0 L 221.5 180.0 L 222.5 181.0 L 223.5 182.0 L 225.0 182.5 L 226.0 183.5 L 227.5 184.0 L 229.0 184.5 L 230.5 185.0 L 232.0 185.5 L 234.0 185.5 L 236.0 185.5 L 237.0 186.5 L 238.5 186.0 L 237.5 185.0 L 236.5 184.0 L 235.5 183.0 L 234.5 182.0 L 233.5 181.0 L 232.5 180.0 L 232.0 178.5 L 231.0 177.5 L 230.5 176.0 L 229.5 175.0 L 228.5 174.0 L 228.0 172.5 L 227.5 171.0 L 226.5 170.0 L 226.0 168.5 L 225.5 167.0 L 224.5 166.0 L 224.0 164.5 L 223.5 163.0 L 222.5 162.0 L 222.0 160.5 L 221.5 159.0 L 220.5 158.0 L 220.0 156.5 L 219.0 155.5 L 218.0 154.5 L 216.5 154.0 L 215.5 153.0 L 215.5 151.0 L 215.0 149.5 L 214.5 148.0 L 213.5 147.0 L 212.5 146.0 L 212.5 144.0 L 213.0 142.5 L 213.0 141.5 L 212.5 140.0 L 211.5 139.0 L 210.5 138.0 L 210.0 136.5 L 209.5 135.0 L 209.5 133.0 L 210.0 131.5 L 210.0 130.5 L 209.5 129.0 L 208.5 128.0 L 209.0 126.5 L 211.0 126.5 L 211.0 125.5 L 210.5 124.0 L 209.5 123.0 L 209.0 121.5 L 208.5 120.0 L 207.5 119.0 L 207.0 117.5 L 206.5 116.0 L 205.5 115.0 L 205.0 113.5 L 204.5 112.0 L 203.5 111.0 L 203.0 109.5 L 202.5 108.0 L 201.5 107.0 L 201.0 105.5 L 200.5 104.0 L 199.5 103.0 L 199.0 101.5 L 198.5 100.0 L 197.5 99.0 L 197.0 97.5 L 196.5 96.0 L 195.5 95.0 L 195.0 93.5 L 194.5 92.0 L 193.5 91.0 L 193.0 89.5 L 192.5 88.0 L 191.5 87.0 L 191.0 85.5 L 190.5 84.0 L 189.5 83.0 L 189.0 81.5 L 188.5 80.0 L 187.5 79.0 L 187.0 77.5 L 186.5 76.0 L 185.5 75.0 L 185.0 73.5 L 184.5 72.0 L 183.5 71.0 L 183.0 69.5 L 182.5 68.0 L 181.5 67.0 L 181.0 65.5 L 180.0 64.5 L 179.0 63.5 L 178.0 62.5 L 177.5 61.0 L 176.5 60.0 L 175.5 59.0 L 174.5 58.0 L 173.5 57.0 L 173.5 55.0 L 173.5 53.0 L 172.5 52.0 L 172.5 50.0 L 172.5 48.0 L 172.5 46.0 L 172.0 44.5 L 171.5 43.0 L 172.0 41.5 L 173.0 42.5 L 174.0 43.5 L 175.0 44.5 L 176.0 45.5 L 177.0 46.5 L 178.0 47.5 L 179.0 48.5 L 180.0 49.5 L 181.0 50.5 L 182.0 51.5 L 182.5 53.0 L 183.0 54.5 L 183.5 56.0 L 183.5 58.0 L 183.5 60.0 L 184.5 61.0 L 184.5 63.0 L 185.0 64.5 L 185.5 66.0 L 186.5 67.0 L 187.0 68.5 L 187.5 70.0 L 188.5 71.0 L 189.0 72.5 L 189.5 74.0 L 190.5 75.0 L 191.0 76.5 L 191.5 78.0 L 192.0 79.5 L 192.5 81.0 L 193.5 82.0 L 194.0 83.5 L 194.5 85.0 L 195.5 86.0 L 196.0 87.5 L 196.5 89.0 L 197.5 90.0 L 198.0 91.5 L 198.5 93.0 L 199.5 94.0 L 200.0 95.5 L 200.5 97.0 L 201.5 98.0 L 202.0 99.5 L 202.5 101.0 L 203.5 102.0 L 204.0 103.5 L 204.5 105.0 L 205.5 106.0 L 206.0 107.5 L 206.5 109.0 L 207.5 110.0 L 207.5 112.0 L 208.5 113.0 L 209.0 114.5 L 209.5 116.0 L 210.5 117.0 L 211.0 118.5 L 211.5 120.0 L 212.5 121.0 L 213.0 122.5 L 213.5 124.0 L 214.5 125.0 L 215.0 126.5 L 216.0 127.5 L 217.5 128.0 L 218.5 129.0 L 219.5 130.0 L 220.5 131.0 L 221.5 132.0 L 221.5 134.0 L 221.5 136.0 L 222.5 137.0 L 223.0 138.5 L 225.0 138.5 L 226.5 139.0 L 227.0 140.5 L 227.5 142.0 L 228.0 143.5 L 229.0 144.5 L 231.0 144.5 L 232.0 143.5 L 233.5 143.0 L 235.0 142.5 L 236.5 142.0 L 238.0 141.5 L 239.5 141.0 L 241.0 140.5 L 242.5 140.0 L 244.0 139.5 L 245.5 139.0 L 247.0 138.5 L 248.0 137.5 L 249.0 136.5 L 250.5 136.0 L 251.5 135.0 L 252.5 134.0 L 253.0 132.5 L 253.5 131.0 L 254.5 130.0 L 256.0 129.5 L 257.0 128.5 L 258.0 127.5 L 259.5 127.0 L 259.5 125.0 L 259.5 123.0 L 258.5 122.0 L 258.5 120.0 L 257.5 119.0 L 256.5 118.0 L 255.5 117.0 L 256.5 116.0 L 256.5 114.0 L 256.5 112.0 L 256.5 110.0 L 256.5 108.0 L 255.5 107.0 L 255.5 105.0 L 255.5 103.0 L 256.5 102.0 L 257.0 100.5 L 258.0 99.5 L 258.5 98.0 L 259.5 97.0 L 260.0 95.5 L 260.5 94.0 L 261.5 93.0 L 262.0 91.5 L 263.0 90.5 L 263.5 89.0 L 264.5 88.0 L 265.5 87.0 L 266.5 86.0 L 267.5 85.0 L 268.5 84.0 L 270.0 83.5 L 272.0 83.5 L 273.5 84.0 L 275.0 84.5 L 276.0 85.5 L 277.5 86.0 L 278.5 87.0 L 279.5 88.0 L 280.0 89.5 L 281.0 90.5 L 281.5 92.0 L 282.0 93.5 L 282.5 95.0 L 282.5 97.0 L 283.5 98.0 L 283.5 100.0 L 284.0 101.5 L 284.5 103.0 L 284.5 105.0 L 284.5 107.0 L 284.0 108.5 L 283.5 110.0 L 283.0 111.5 L 282.5 113.0 L 281.5 114.0 L 281.5 116.0 L 281.5 118.0 L 282.5 119.0 L 283.5 120.0 L 284.0 121.5 L 285.5 122.0 L 286.5 123.0 L 287.0 124.5 L 287.5 126.0 L 288.0 127.5 L 288.5 129.0 L 289.5 130.0 L 289.5 132.0 L 290.5 133.0 L 291.0 134.5 L 293.0 134.5 L 295.0 134.5 L 297.0 134.5 L 299.0 134.5 L 300.0 135.5 L 302.0 135.5 L 304.0 135.5 L 306.0 135.5 L 307.5 136.0 L 309.0 136.5 L 311.0 136.5 L 313.0 136.5 L 314.5 137.0 L 316.0 137.5 L 318.0 137.5 L 319.5 138.0 L 321.0 138.5 L 323.0 138.5 L 324.5 139.0 L 326.0 139.5 L 328.0 139.5 L 329.0 140.5 L 331.0 140.5 L 332.0 141.5 L 333.5 142.0 L 334.5 143.0 L 334.5 145.0 L 335.0 146.5 L 335.5 148.0 L 335.5 150.0 L 335.5 152.0 L 335.5 154.0 L 335.5 156.0 L 335.5 158.0 L 335.5 160.0 L 335.5 162.0 L 335.0 163.5 L 334.5 165.0 L 334.5 167.0 L 334.5 169.0 L 334.5 171.0 L 333.5 172.0 L 333.5 174.0 L 333.5 176.0 L 333.0 177.5 L 332.5 179.0 L 332.5 181.0 L 332.0 182.5 L 331.5 184.0 L 331.5 186.0 L 331.0 187.5 L 330.5 189.0 L 330.5 191.0 L 329.5 192.0 L 329.5 194.0 L 329.0 195.5 L 328.5 197.0 L 328.5 199.0 L 327.5 200.0 L 327.5 202.0 L 326.5 203.0 L 326.5 205.0 L 326.0 206.5 L 325.5 208.0 L 324.5 209.0 L 324.5 211.0 L 323.5 212.0 L 323.5 214.0 L 322.5 215.0 L 322.5 217.0 L 321.5 218.0 L 321.0 219.5 L 320.5 221.0 L 320.0 222.5 L 319.5 224.0 L 318.5 225.0 L 318.0 226.5 L 317.5 228.0 L 316.5 229.0 L 316.0 230.5 L 315.5 232.0 L 315.0 233.5 L 314.5 235.0 L 313.5 236.0 L 314.5 237.0 L 315.5 238.0 L 316.5 239.0 L 317.5 240.0 L 318.5 241.0 L 319.5 242.0 L 320.0 243.5 L 321.0 244.5 L 322.0 245.5 L 323.0 246.5 L 324.5 247.0 L 326.0 247.5 L 328.0 247.5 L 330.0 247.5 L 331.0 246.5 L 332.5 246.0 L 333.5 245.0 L 335.0 244.5 L 336.0 243.5 L 337.5 243.0 L 339.0 242.5 L 340.0 241.5 L 342.0 241.5 L 343.5 241.0 L 345.0 240.5 L 346.0 241.5 L 348.0 241.5 L 349.5 242.0 L 351.0 242.5 L 352.0 243.5 L 353.5 244.0 L 355.0 244.5 L 356.0 245.5 L 357.5 246.0 L 358.5 247.0 L 359.5 248.0 L 360.5 249.0 L 361.5 250.0 L 362.0 251.5 L 363.0 252.5 L 363.5 254.0 L 363.5 256.0 L 364.5 257.0 L 364.5 259.0 L 364.5 261.0 L 364.0 262.5 L 363.5 264.0 L 363.0 265.5 L 362.5 267.0 L 362.0 268.5 L 361.5 270.0 L 360.5 271.0 L 360.0 272.5 L 359.0 273.5 L 358.5 275.0 L 357.5 276.0 L 356.5 277.0 L 355.5 278.0 L 355.0 279.5 L 354.0 280.5 L 353.0 281.5 L 352.0 282.5 L 351.0 283.5 L 349.5 284.0 L 348.5 285.0 L 347.5 286.0 L 346.5 287.0 L 345.5 288.0 L 345.0 289.5 L 344.0 290.5 L 343.5 292.0 L 342.5 293.0 L 341.5 294.0 L 341.0 295.5 L 340.5 297.0 L 339.5 298.0 L 339.0 299.5 L 338.5 301.0 L 337.5 302.0 L 336.5 303.0 L 336.0 304.5 L 335.5 306.0 L 335.0 307.5 L 334.5 309.0 L 333.5 310.0 L 333.5 312.0 L 333.0 313.5 L 332.5 315.0 L 332.5 317.0 L 332.0 318.5 L 331.5 317.0 L 331.5 315.0 L 331.5 313.0 L 331.5 311.0 L 331.5 309.0 L 330.5 309.0 L 330.0 310.5 L 329.5 312.0 L 328.5 313.0 L 328.5 315.0 L 328.5 317.0 L 327.5 318.0 L 327.5 320.0 L 327.5 322.0 L 328.0 323.5 L 328.5 325.0 L 328.5 327.0 L 329.5 328.0 L 329.5 330.0 L 329.5 332.0 L 329.5 334.0 L 328.5 335.0 L 328.0 336.5 L 327.0 337.5 L 326.0 338.5 L 325.0 339.5 L 324.0 340.5 L 323.0 341.5 L 321.5 342.0 L 320.0 342.5 L 319.0 343.5 L 318.5 345.0 L 317.5 346.0 L 317.0 347.5 L 316.5 349.0 L 315.5 350.0 L 315.0 351.5 L 314.5 353.0 L 313.5 353.0 L 313.5 351.0 L 314.0 349.5 L 314.5 348.0 L 314.5 346.0 L 315.5 345.0 L 314.5 345.0 L 313.5 346.0 L 313.0 347.5 L 312.5 349.0 L 311.5 349.0 L 311.5 347.0 L 311.0 345.5 L 310.5 347.0 L 309.5 348.0 L 309.0 349.5 L 308.5 351.0 L 308.0 352.5 L 307.5 354.0 L 306.5 355.0 L 306.5 357.0 L 306.5 359.0 L 305.5 360.0 L 305.5 362.0 L 305.0 363.5 L 304.5 365.0 L 304.5 367.0 L 304.5 369.0 L 304.5 371.0 L 304.5 373.0 L 304.5 375.0 L 304.5 377.0 L 304.5 379.0 L 305.5 380.0 L 305.5 382.0 L 306.0 383.5 L 306.5 385.0 L 306.5 387.0 L 306.5 389.0 L 306.0 390.5 L 305.5 392.0 L 305.0 393.5 L 304.0 394.5 L 303.5 396.0 L 302.5 397.0 L 301.5 398.0 L 300.0 398.5 L 299.0 399.5 L 298.0 400.5 L 296.5 401.0 L 295.0 401.5 L 294.0 402.5 L 292.0 402.5 L 291.0 403.5 L 289.5 403.0 L 288.5 402.0 L 288.0 400.5 L 287.5 399.0 L 286.0 398.5 L 285.0 399.5 L 284.5 401.0 L 284.0 402.5 L 283.5 404.0 L 282.5 405.0 L 281.5 406.0 L 280.0 406.5 L 279.0 407.5 Z "/>
</svg>
