<svg version="1.2" xmlns="http://www.w3.org/2000/svg" viewBox="0 0 706 706" width="706" height="706"><defs><clipPath clipPathUnits="userSpaceOnUse" id="cp1"><path d="m-111-364h2560v1440h-2560z"/></clipPath><clipPath clipPathUnits="userSpaceOnUse" id="cp2"><path d="m-111-364h2560v1440h-2560z"/></clipPath></defs><style>.a{fill:#0072ac}</style><g clip-path="url(#cp1)"><g clip-path="url(#cp2)"><path fill-rule="evenodd" class="a" d="m674.9 407.1c-10.9 32.4-29.6 59.6-53.6 80.3-24.3 21-52.8 36.7-90.1 43.4-41.4 7.5-83.6 0.5-114.2-13-31.2-13.8-54.1-33.9-73.5-60.1-21.5 28.7-51 52.3-89.1 65.6-18.5 6.5-42.5 11.6-66.2 10.5-24.1-1.1-46.4-4.7-65.3-12.1 8 24.3 24.1 44.1 41.7 60.4 26.8 24.7 62.1 40.5 99 54.8 12.4 4.9 26.5 7.6 40.8 10.5 28.5 5.7 60.6 8.6 94.3 4.9 0.6 1.5-1.1 2.7-1.9 3.9-6.3 9.4-13.9 19.3-20.3 28.7-114.2 23.6-221.7-47.6-221.7-47.6-46.2-30.9-84.3-71.9-111.3-121.8-15.3-28.3-27.2-61-33.9-99.2-3.4-19.4-4.6-40.6-5.2-61.4-0.6-20.6 3-40.2 8.4-57.5 10.3-32.3 29.1-60.1 52.6-80.6 24.3-21.2 52.5-36.4 89.4-43.8 41.5-8.2 83.4-0.6 113.7 12.5 30.8 13.3 54.5 33.5 73.7 59 22.4-27.2 51-51.4 88.8-64.3 18.5-6.3 41.4-11.2 65.3-11.4 24-0.2 46.1 4.9 65.3 11.1-19.2-47-58.3-78.2-105.1-99.2-46.4-20.8-104.5-36.2-171.1-29.1-0.5-0.9 1.2-2.9 2.3-4.2 7.4-9.4 16.1-20.1 23.8-29.4 11.1-1.5 20.3-2.7 31.7-2.9 102.1-2 169.4 37.8 169.4 37.8 9.1 5.1 14 8.5 20.6 13.1 46.2 32 84.8 71.1 111.6 122.1 15.1 28.5 27.5 61.6 34 99.9 3.3 19.4 4.6 40.8 5.2 61.7 0.7 20.4-3.6 40.9-9.1 57.4zm-273.1-14.8h-58v-118.3h-36.4v149.9h94.4zm-115.4 31.5l-62.2-149.9h-35.1l-62.9 149.9h39.4l40.4-109.9 40.2 109.9zm266.3-20.7l-25.2-23.8q-4.9 6.8-12.9 11.1-8.1 4.2-18.9 4.2-9.3 0-17.1-3.4-7.8-3.4-13.4-9.4-5.7-6-8.8-14.5-3.2-8.5-3.2-18.6 0-10 3.2-18.4 3.1-8.3 8.9-14.4 5.7-6.2 13.6-9.7 7.9-3.5 17.5-3.5 8.6 0 16.9 3.4 8.3 3.4 13.3 10.4l24.6-24.6q-9.5-10.8-24.9-16.4-15.3-5.6-31.2-5.6-17.1 0-32 5.5-14.8 5.5-25.8 15.8-11 10.3-17.2 24.9-6.3 14.6-6.3 32.6 0 17.5 6.2 32.1 6.1 14.6 16.9 25.1 10.8 10.5 25.5 16.2 14.7 5.7 32.1 5.7 19 0 33.6-6.7 14.6-6.6 24.6-18z"/><path class="a" d="m788.2 266.8h-22.7l63.2-145.9h18.6l62.6 145.9h-23l-14.9-35.9h-69.2zm21.8-53.8h54.6l-27.2-68.4z"/><path class="a" d="m1004.3 147.9q-4.3-6-11.7-9.8-7.5-3.8-16.7-3.8-5 0-10 1.3-5.1 1.4-9.2 4.4-4.1 2.9-6.7 7.4-2.6 4.4-2.6 10.6 0 6 2.4 10 2.4 4 6.4 6.8 4 2.8 9.5 4.7 5.4 2 11.6 4 7.4 2.3 15 5.2 7.7 2.9 13.9 7.6 6.1 4.7 10.1 11.9 3.9 7.1 3.9 18 0 11.3-4.3 19.7-4.2 8.3-11.2 13.8-7 5.4-16.2 8.1-9.1 2.7-18.8 2.7-13.8 0-26.7-5.4-12.9-5.3-21.3-15.8l15.8-13.4q5.2 7.6 13.8 12.3 8.7 4.8 18.8 4.8 5.1 0 10.3-1.5 5.1-1.4 9.4-4.5 4.2-3.1 6.9-7.7 2.7-4.7 2.7-11.3 0-6.6-2.8-11-2.8-4.4-7.6-7.5-4.7-3.1-11-5.3-6.3-2.1-13.3-4.4-7-2-13.8-5-6.8-3-12.1-7.7-5.4-4.6-8.7-11.4-3.3-6.8-3.3-16.9 0-10.9 4.5-18.7 4.4-7.9 11.5-13 7.1-5.2 16.1-7.5 8.9-2.4 18-2.4 12.8 0 23.9 4.5 11.1 4.6 17.9 12.2z"/><path class="a" d="m1124.6 147.9q-4.3-6-11.7-9.8-7.4-3.8-16.7-3.8-5 0-10 1.3-5.1 1.4-9.2 4.4-4.1 2.9-6.7 7.4-2.5 4.4-2.5 10.6 0 6 2.3 10 2.4 4 6.4 6.8 4 2.8 9.5 4.7 5.5 2 11.6 4 7.5 2.3 15.1 5.2 7.6 2.9 13.8 7.6 6.2 4.7 10.1 11.9 3.9 7.1 3.9 18 0 11.3-4.2 19.7-4.3 8.3-11.3 13.8-7 5.4-16.1 8.1-9.2 2.7-18.9 2.7-13.8 0-26.7-5.4-12.9-5.3-21.3-15.8l15.9-13.4q5.1 7.6 13.8 12.3 8.6 4.8 18.7 4.8 5.2 0 10.3-1.5 5.2-1.4 9.4-4.5 4.2-3.1 6.9-7.7 2.7-4.7 2.7-11.3 0-6.6-2.8-11-2.8-4.4-7.5-7.5-4.8-3.1-11.1-5.3-6.2-2.1-13.2-4.4-7-2-13.8-5-6.8-3-12.2-7.7-5.4-4.6-8.7-11.4-3.2-6.8-3.2-16.9 0-10.9 4.4-18.7 4.4-7.9 11.5-13 7.1-5.2 16.1-7.5 9-2.4 18-2.4 12.8 0 23.9 4.5 11.1 4.6 17.9 12.2z"/><path class="a" d="m1319.5 193.6q0 16.9-5.8 31-5.9 14.2-16.2 24.4-10.3 10.2-24.5 15.8-14.2 5.7-30.9 5.7-16.7 0-30.8-5.7-14.2-5.6-24.5-15.8-10.3-10.2-16-24.4-5.8-14.1-5.8-31 0-17.1 5.8-31.2 5.7-14.1 16-24.1 10.3-10 24.5-15.6 14.1-5.5 30.8-5.5 16.7 0 30.9 5.5 14.2 5.6 24.5 15.6 10.3 10 16.2 24.1 5.8 14.1 5.8 31.2zm-22 0q0-11.9-3.9-22.5-3.9-10.6-11.1-18.7-7.3-8-17.5-12.7-10.2-4.6-22.9-4.6-12.6 0-22.8 4.6-10.2 4.7-17.3 12.7-7.1 8.1-11 18.7-4 10.6-4 22.5 0 12.2 4 22.9 3.9 10.7 11.1 18.6 7.2 8 17.3 12.5 10.1 4.5 22.7 4.5 12.5 0 22.8-4.5 10.3-4.5 17.6-12.5 7.2-7.9 11.1-18.6 3.9-10.7 3.9-22.9z"/><path class="a" d="m1475.5 244.1q-8.6 11.8-22.4 19.1-13.9 7.3-33.2 7.3-16.7 0-30.8-5.7-14.1-5.6-24.3-15.8-10.2-10.2-16-24.4-5.8-14.1-5.8-31 0-17.1 5.9-31.2 5.9-14.1 16.3-24.1 10.4-10 24.6-15.5 14.2-5.6 30.9-5.6 7.4 0 15.1 1.4 7.6 1.5 14.6 4.4 7 2.8 12.8 7.1 5.7 4.2 9.8 9.7l-16 12.4q-5.4-7.4-15.2-12.2-9.8-4.9-21.1-4.9-12.8 0-23 4.6-10.2 4.7-17.4 12.7-7.2 8.1-11.1 18.7-3.9 10.6-3.9 22.5 0 12.4 3.8 23.1 3.8 10.7 10.9 18.7 7.1 7.9 17.3 12.4 10.2 4.6 22.8 4.6 12.4 0 22.4-5 10.1-4.9 16.7-14.4z"/><path class="a" d="m1519.8 266.8h-20.4v-145.9h20.4z"/><path class="a" d="m1564.3 266.8h-22.6l63.2-145.9h18.6l62.6 145.9h-23.1l-14.8-35.9h-69.2zm21.8-53.8h54.6l-27.2-68.4z"/><path class="a" d="m1804.2 138.8l-82.5 109.8h83.7v18.2h-108.4v-17.9l82.2-110.1h-80.5v-17.9h105.5z"/><path class="a" d="m1853.4 266.8h-20.4v-145.9h20.4z"/><path class="a" d="m2039 193.6q0 16.9-5.8 31-5.9 14.2-16.2 24.4-10.3 10.2-24.5 15.8-14.2 5.7-30.9 5.7-16.7 0-30.8-5.7-14.2-5.6-24.5-15.8-10.3-10.2-16-24.4-5.8-14.1-5.8-31 0-17.1 5.8-31.2 5.7-14.1 16-24.1 10.3-10 24.5-15.6 14.1-5.5 30.8-5.5 16.7 0 30.9 5.5 14.2 5.6 24.5 15.6 10.3 10 16.2 24.1 5.8 14.1 5.8 31.2zm-22 0q0-11.9-3.9-22.5-3.9-10.6-11.1-18.7-7.3-8-17.5-12.7-10.2-4.6-22.9-4.6-12.6 0-22.8 4.6-10.2 4.7-17.3 12.7-7.1 8.1-11 18.7-3.9 10.6-4 22.5 0.1 12.2 4 22.9 3.9 10.7 11.1 18.6 7.2 8 17.3 12.5 10.1 4.5 22.7 4.5 12.5 0 22.8-4.5 10.3-4.5 17.6-12.5 7.2-7.9 11.1-18.6 3.9-10.7 3.9-22.9z"/><path class="a" d="m2172.8 237.5h0.4v-116.6h20.4v145.9h-25.8l-77-119.1h-0.5v119.1h-20.4v-145.9h26.6z"/><path class="a" d="m2252.5 248.6h76.2v18.2h-96.6v-145.9h93.6v17.9h-73.2v43.7h68.8v17.5h-68.8z"/><path class="a" d="m795.9 446.3h65.1v18.1h-85.5v-145.8h20.4z"/><path class="a" d="m929.4 468.1q-14.4 0-25.1-4.8-10.8-4.8-17.8-12.9-7-8-10.4-18.4-3.4-10.4-3.4-21.6v-91.8h20.4v90.6q0 7.4 1.9 14.7 1.8 7.4 6.1 13.1 4.2 5.8 11.1 9.3 6.9 3.5 17.2 3.5 10.1 0 17.1-3.5 7-3.5 11.2-9.3 4.3-5.7 6.1-13.1 1.9-7.3 1.9-14.7v-90.6h20.4v91.8q0 11.2-3.4 21.6-3.4 10.4-10.4 18.4-7 8.1-17.8 12.9-10.7 4.8-25.1 4.8z"/><path class="a" d="m1143.5 441.8q-8.7 11.7-22.5 19-13.8 7.3-33.2 7.3-16.6 0-30.8-5.6-14.1-5.7-24.3-15.9-10.2-10.2-15.9-24.3-5.8-14.1-5.8-31 0-17.1 5.9-31.2 5.8-14.1 16.2-24.1 10.5-10 24.7-15.6 14.2-5.6 30.9-5.6 7.4 0 15 1.5 7.6 1.4 14.6 4.3 7 2.9 12.8 7.1 5.8 4.2 9.9 9.8l-16.1 12.4q-5.3-7.4-15.1-12.3-9.8-4.8-21.1-4.8-12.8 0-23 4.6-10.2 4.6-17.4 12.7-7.2 8-11.1 18.6-4 10.6-4 22.6 0 12.4 3.9 23.1 3.8 10.7 10.9 18.6 7.1 7.9 17.3 12.5 10.2 4.5 22.7 4.5 12.4 0 22.5-4.9 10.1-5 16.7-14.5z"/><path class="a" d="m1165.7 464.4h-22.6l63.2-145.8h18.6l62.6 145.8h-23.1l-14.8-35.8h-69.2zm21.8-53.8h54.6l-27.2-68.4z"/><path class="a" d="m1475 441.8q-8.7 11.7-22.5 19-13.8 7.3-33.1 7.3-16.7 0-30.8-5.6-14.1-5.7-24.3-15.9-10.2-10.2-16-24.3-5.8-14.1-5.8-31 0-17.1 5.9-31.2 5.9-14.1 16.3-24.1 10.4-10 24.6-15.6 14.2-5.6 30.9-5.6 7.4 0 15 1.5 7.7 1.4 14.7 4.3 7 2.9 12.7 7.1 5.8 4.2 9.9 9.8l-16 12.4q-5.4-7.4-15.2-12.3-9.8-4.8-21.1-4.8-12.8 0-23 4.6-10.2 4.6-17.4 12.7-7.2 8-11.1 18.6-3.9 10.6-3.9 22.6 0 12.4 3.8 23.1 3.8 10.7 10.9 18.6 7.1 7.9 17.3 12.5 10.2 4.5 22.8 4.5 12.3 0 22.4-4.9 10.1-5 16.7-14.5z"/><path class="a" d="m1638.4 391.3q0 16.9-5.9 31-5.8 14.1-16.2 24.3-10.3 10.2-24.5 15.9-14.2 5.6-30.9 5.6-16.7 0-30.8-5.6-14.1-5.7-24.4-15.9-10.3-10.2-16.1-24.3-5.7-14.1-5.7-31 0-17.1 5.7-31.2 5.8-14.1 16.1-24.1 10.3-10 24.4-15.6 14.1-5.6 30.8-5.6 16.7 0 30.9 5.6 14.2 5.6 24.5 15.6 10.4 10 16.2 24.1 5.9 14.1 5.9 31.2zm-22.1 0q0.1-12-3.9-22.6-3.9-10.6-11.1-18.6-7.2-8.1-17.4-12.7-10.2-4.6-23-4.6-12.5 0-22.7 4.6-10.2 4.6-17.4 12.7-7.1 8-11 18.6-3.9 10.6-3.9 22.6 0 12.1 3.9 22.9 3.9 10.7 11.1 18.6 7.3 7.9 17.4 12.5 10.1 4.5 22.6 4.5 12.6 0 22.9-4.5 10.3-4.6 17.5-12.5 7.2-7.9 11.1-18.6 4-10.8 3.9-22.9z"/><path class="a" d="m1736.7 345.5q-4.3-5.9-11.8-9.7-7.4-3.9-16.7-3.9-4.9 0-9.9 1.4-5.1 1.3-9.2 4.3-4.1 3-6.7 7.4-2.6 4.5-2.6 10.6 0 6 2.4 10 2.3 4.1 6.4 6.8 4 2.8 9.4 4.8 5.5 1.9 11.7 4 7.4 2.3 15 5.1 7.7 2.9 13.8 7.7 6.2 4.7 10.1 11.8 4 7.1 3.9 18 0 11.4-4.2 19.7-4.2 8.4-11.2 13.8-7 5.5-16.2 8.2-9.1 2.6-18.8 2.6-13.8 0-26.7-5.3-12.9-5.4-21.3-15.9l15.8-13.4q5.2 7.7 13.8 12.4 8.7 4.7 18.8 4.7 5.1 0 10.3-1.4 5.1-1.5 9.4-4.5 4.2-3.1 6.9-7.8 2.6-4.6 2.6-11.2 0-6.6-2.7-11-2.8-4.5-7.6-7.5-4.7-3.1-11-5.3-6.3-2.2-13.3-4.4-7-2.1-13.8-5.1-6.8-3-12.1-7.6-5.4-4.6-8.7-11.4-3.3-6.8-3.3-16.9 0-11 4.4-18.8 4.5-7.8 11.6-13 7.1-5.1 16-7.5 9-2.4 18.1-2.4 12.8 0 23.9 4.6 11.1 4.5 17.9 12.1z"/><path class="a" d="m1904.4 441.8q-8.7 11.7-22.5 19-13.8 7.3-33.1 7.3-16.7 0-30.8-5.6-14.1-5.7-24.3-15.9-10.3-10.2-16-24.3-5.8-14.1-5.8-31 0-17.1 5.9-31.2 5.9-14.1 16.3-24.1 10.4-10 24.6-15.6 14.2-5.6 30.9-5.6 7.4 0 15 1.5 7.6 1.4 14.7 4.3 7 2.9 12.7 7.1 5.8 4.2 9.9 9.8l-16 12.4q-5.4-7.4-15.2-12.3-9.8-4.8-21.1-4.8-12.8 0-23 4.6-10.2 4.6-17.4 12.7-7.2 8-11.1 18.6-3.9 10.6-3.9 22.6 0 12.4 3.8 23.1 3.8 10.7 10.9 18.6 7.1 7.9 17.3 12.5 10.2 4.5 22.8 4.5 12.3 0 22.4-4.9 10.1-5 16.7-14.5z"/><path class="a" d="m1943.5 464.4h-20.3v-145.8h20.3z"/><path class="a" d="m2124 391.3q0 16.9-5.8 31-5.9 14.1-16.2 24.3-10.3 10.2-24.5 15.9-14.2 5.6-30.9 5.6-16.7 0-30.8-5.6-14.1-5.7-24.5-15.9-10.3-10.2-16-24.3-5.8-14.1-5.8-31 0-17.1 5.8-31.2 5.7-14.1 16-24.1 10.4-10 24.5-15.6 14.1-5.6 30.8-5.6 16.7 0 30.9 5.6 14.2 5.6 24.5 15.6 10.3 10 16.2 24.1 5.8 14.1 5.8 31.2zm-22 0q0-12-3.9-22.6-3.9-10.6-11.2-18.6-7.2-8.1-17.3-12.7-10.3-4.6-23-4.6-12.6 0-22.8 4.6-10.2 4.6-17.3 12.7-7.1 8-11 18.6-3.9 10.6-3.9 22.6 0 12.1 3.9 22.9 3.9 10.7 11.1 18.6 7.2 7.9 17.3 12.5 10.1 4.5 22.7 4.5 12.5 0 22.8-4.5 10.3-4.6 17.5-12.5 7.3-7.9 11.2-18.6 3.9-10.8 3.9-22.9z"/><path class="a" d="m2252.6 435.2h0.4v-116.6h20.4v145.8h-25.7l-77.1-119.1h-0.4v119.1h-20.4v-145.8h26.6z"/><path class="a" d="m2327.2 464.4h-20.4v-145.8h20.4z"/><path class="a" d="m811.5 541.1q0 4.8-1.5 8.5-1.5 3.6-3.9 6-2.4 2.4-5.6 3.6-3.1 1.2-6.4 1.2h-7.5v25.5h-10.6v-63.6h17.6q3 0 6.2 0.9 3.2 0.9 5.8 3.1 2.5 2.2 4.2 5.8 1.7 3.6 1.7 9zm-10.2 0.1q0-5.1-2.4-7.4-2.4-2.3-6.2-2.3h-6.1v20.1h6.1q3.8 0 6.2-2.7 2.4-2.6 2.4-7.7z"/><path class="a" d="m2295.4 541.1q0 4.8-1.5 8.5-1.5 3.6-3.9 6-2.4 2.4-5.6 3.6-3.1 1.2-6.4 1.2h-7.5v25.5h-10.6v-63.6h17.5q3.1 0 6.3 0.9 3.2 0.9 5.8 3.1 2.5 2.2 4.2 5.8 1.7 3.6 1.7 9zm-10.2 0.1q0-5.1-2.4-7.4-2.4-2.3-6.2-2.3h-6.1v20.1h6.1q3.8 0 6.2-2.7 2.4-2.6 2.4-7.7z"/><path class="a" d="m822 585.9v-63.6h28.4v9.5h-18.1v16.9h16.8v8.8h-16.8v18.8h19v9.6z"/><path class="a" d="m888.9 585.9l-9.8-27.1h-6v27.1h-10.5v-63.6h18.2q3.9 0 7.2 1 3.4 1.1 5.7 3.3 2.4 2.3 3.8 5.7 1.3 3.4 1.3 8.1 0 3.7-0.9 6.6-1 2.8-2.4 4.8-1.4 1.9-3.2 3.1-1.7 1.3-3.4 1.7l11.4 29.3zm-0.8-44.9q0-2.9-0.8-4.8-0.8-1.9-2.1-2.9-1.3-1.1-2.9-1.6-1.6-0.4-3.2-0.4h-6.1v19.6h6.1q3.9 0 6.5-2.5 2.5-2.5 2.5-7.4z"/><path class="a" d="m929.2 585.9v-63.6h10.9v53.6h17.5v10z"/><path class="a" d="m993.7 585.9l-3.1-13.5h-16.7l-3.3 13.5h-10.7l15.8-63.6h13.7l15.5 63.6zm-11.2-53.4h-0.3l-7 31.5h14z"/><path class="a" d="m1030.5 585.9v-63.6h10.9v53.6h17.5v10z"/><path class="a" d="m1067.4 522.3h10.8v63.6h-10.8z"/><path class="a" d="m1129.4 568.1q0 5-1.7 8.4-1.6 3.4-4.2 5.5-2.6 2.1-5.8 3-3.1 0.9-6.2 0.9h-18.8v-63.6h16.8q2.8 0 6 0.7 3.1 0.7 5.7 2.4 2.6 1.8 4.3 4.8 1.7 3.2 1.7 8.1 0 5.9-2.5 9.3-2.5 3.4-5.8 4.8v0.2q1.8 0.4 3.6 1.5 1.9 1.1 3.4 3 1.5 1.9 2.5 4.7 1 2.7 1 6.3zm-11.9-28.1q0-2.4-0.7-4.1-0.8-1.7-2-2.7-1.2-1-2.8-1.5-1.6-0.4-3.3-0.4h-5.9v17.7h6.1q1.6 0 3.1-0.5 1.6-0.5 2.8-1.6 1.2-1.1 2-2.8 0.7-1.7 0.7-4.1zm1.5 27.2q0-2.8-0.8-4.7-0.9-1.9-2.4-3.2-1.4-1.2-3.1-1.7-1.7-0.5-3.4-0.5h-6.5v19.8h6.8q2 0 3.6-0.6 1.7-0.6 3-1.8 1.3-1.2 2.1-3 0.7-1.8 0.7-4.3z"/><path class="a" d="m1140.8 585.9v-63.6h28.4v9.5h-18.1v16.9h16.8v8.8h-16.8v18.8h19v9.6z"/><path class="a" d="m1207.8 585.9l-9.9-27.1h-6v27.1h-10.4v-63.6h18.1q3.9 0 7.3 1 3.3 1.1 5.7 3.3 2.3 2.3 3.7 5.7 1.3 3.4 1.3 8.1 0 3.7-0.9 6.6-1 2.8-2.4 4.8-1.4 1.9-3.2 3.1-1.7 1.3-3.4 1.7l11.4 29.3zm-0.8-44.9q0-2.9-0.8-4.8-0.8-1.9-2.1-2.9-1.3-1.1-2.9-1.6-1.6-0.4-3.2-0.4h-6.1v19.6h6.1q3.9 0 6.5-2.5 2.6-2.5 2.5-7.4z"/><path class="a" d="m1244.4 531.5v54.4h-10.6v-54.4h-12v-9.2h34.5v9.2z"/><path class="a" d="m1290.1 585.9l-3.2-13.5h-16.7l-3.2 13.5h-10.8l15.8-63.6h13.8l15.5 63.6zm-12.9-68.6l-9.8-13h9.3l8.1 13zm1.7 15.2h-0.4l-6.9 31.5h14z"/><path class="a" d="m1367.8 554.2q0 15.1-6.4 23.4-6.3 8.3-18.6 8.3h-15.9v-63.6h16q12.2 0 18.5 8.4 6.4 8.4 6.4 23.5zm-10.8 0q0-5.7-1.1-9.9-1-4.2-2.9-7-1.9-2.8-4.5-4.2-2.6-1.4-5.6-1.4h-5.1v44.7h5.1q3 0 5.6-1.3 2.6-1.4 4.5-4.2 1.9-2.8 2.9-7 1.1-4.2 1.1-9.7z"/><path class="a" d="m1379.5 522.3h10.8v63.6h-10.8z"/><path class="a" d="m1450.1 585.9l-9.9-27.1h-6v27.1h-10.4v-63.6h18.1q4 0 7.3 1 3.3 1.1 5.7 3.3 2.4 2.3 3.7 5.7 1.4 3.4 1.4 8.1 0 3.7-1 6.6-0.9 2.8-2.4 4.8-1.4 1.9-3.2 3.1-1.7 1.3-3.4 1.7l11.4 29.3zm-0.7-44.9q0-2.9-0.8-4.8-0.8-1.9-2.1-2.9-1.4-1.1-3-1.6-1.6-0.4-3.2-0.4h-6.1v19.6h6.1q4 0 6.5-2.5 2.6-2.5 2.6-7.4z"/><path class="a" d="m1471.3 522.3h10.8v63.6h-10.8z"/><path class="a" d="m1527.1 585.2q-3.9 2.3-9.9 2.3-5.4 0-9.7-2.5-4.4-2.5-7.4-7-3-4.4-4.6-10.5-1.7-6.1-1.7-13.4 0-7.3 1.7-13.4 1.6-6.2 4.7-10.6 3-4.5 7.4-6.9 4.3-2.5 9.6-2.5 5.5 0 9.6 2 4.2 2 6.8 5.8l-6.2 7.5q-3.7-5.3-9.6-5.3-3.2 0-5.6 1.9-2.4 1.8-4 5-1.7 3.1-2.5 7.4-0.8 4.2-0.8 9.1 0 4.7 0.8 9 0.8 4.3 2.5 7.4 1.6 3.2 4 5 2.5 1.8 5.8 1.8 3.2 0 5.5-1.6 2.3-1.6 3.8-3.9l6.2 7.3q-2.5 3.7-6.4 6.1z"/><path class="a" d="m1542.6 585.9v-63.6h28.5v9.5h-18.1v16.9h16.8v8.8h-16.8v18.8h19v9.6z"/><path class="a" d="m1609.6 585.9l-9.9-27.1h-6v27.1h-10.4v-63.6h18.1q4 0 7.3 1 3.3 1.1 5.7 3.3 2.4 2.3 3.7 5.7 1.4 3.4 1.4 8.1 0 3.7-0.9 6.6-1 2.8-2.4 4.8-1.5 1.9-3.2 3.1-1.8 1.3-3.5 1.7l11.4 29.3zm-0.7-44.9q0-2.9-0.8-4.8-0.8-1.9-2.1-2.9-1.3-1.1-2.9-1.6-1.7-0.4-3.3-0.4h-6.1v19.6h6.1q4 0 6.6-2.5 2.5-2.5 2.5-7.4z"/><path class="a" d="m1661.4 585.2q-3.9 2.3-9.9 2.3-5.3 0-9.7-2.5-4.4-2.5-7.4-7-3-4.4-4.6-10.5-1.7-6.1-1.7-13.4 0-7.3 1.7-13.4 1.6-6.2 4.7-10.6 3-4.5 7.4-6.9 4.3-2.5 9.6-2.5 5.5 0 9.6 2 4.2 2 6.8 5.8l-6.2 7.5q-3.7-5.3-9.5-5.3-3.3 0-5.7 1.9-2.4 1.8-4 5-1.6 3.1-2.5 7.4-0.8 4.2-0.8 9.1 0 4.7 0.8 9 0.9 4.3 2.5 7.4 1.6 3.2 4 5 2.5 1.8 5.8 1.8 3.2 0 5.5-1.6 2.3-1.6 3.8-3.9l6.2 7.3q-2.5 3.7-6.4 6.1z"/><path class="a" d="m1703.4 585.9l-3.1-13.5h-16.7l-3.2 13.5h-10.8l15.8-63.6h13.7l15.6 63.6zm-11.3-53.4h-0.3l-6.9 31.5h14z"/><path class="a" d="m1765.2 534.6q-3.5-4.2-8.8-4.2-1.5 0-3 0.5-1.4 0.5-2.6 1.6-1.1 1-1.8 2.7-0.7 1.7-0.7 4.1 0 4 2.4 6.2 2.5 2.2 6.4 4.2 2.4 1.2 4.8 2.7 2.4 1.5 4.4 3.7 2 2.1 3.2 5.1 1.3 2.9 1.3 7 0 4.7-1.5 8.2-1.5 3.6-4 6.1-2.4 2.5-5.8 3.7-3.3 1.3-7 1.3-5.3 0-9.7-2.1-4.5-2-7.2-5.2l5.8-7.9q2.1 2.5 5 4 2.9 1.4 6 1.4 3.4 0 5.6-2.3 2.3-2.4 2.3-6.6 0-4.1-2.7-6.5-2.7-2.5-6.9-4.5-2.6-1.3-4.9-2.8-2.2-1.5-4-3.6-1.7-2.2-2.8-5-1-2.8-1-6.8 0-4.9 1.6-8.5 1.5-3.5 4.1-5.8 2.6-2.4 5.8-3.5 3.2-1.1 6.5-1.1 4.9 0 8.7 1.6 3.8 1.5 6.4 4.6z"/><path class="a" d="m2328.4 534.6q-3.5-4.2-8.8-4.2-1.5 0-3 0.5-1.4 0.5-2.6 1.6-1.1 1-1.8 2.7-0.7 1.7-0.7 4.1 0 4 2.4 6.2 2.5 2.2 6.4 4.2 2.4 1.2 4.8 2.7 2.4 1.5 4.4 3.7 2 2.1 3.2 5.1 1.3 2.9 1.3 7 0 4.7-1.5 8.2-1.5 3.6-4 6.1-2.4 2.5-5.8 3.7-3.3 1.3-7 1.3-5.3 0-9.7-2.1-4.5-2-7.2-5.2l5.8-7.9q2.1 2.5 5 4 2.9 1.4 6 1.4 3.4 0 5.6-2.3 2.3-2.4 2.3-6.6 0-4.1-2.7-6.5-2.7-2.5-6.9-4.5-2.6-1.3-4.8-2.8-2.3-1.5-4.1-3.6-1.7-2.2-2.8-5-1-2.8-1-6.8 0-4.9 1.6-8.5 1.5-3.5 4.1-5.8 2.6-2.4 5.8-3.5 3.2-1.1 6.5-1.1 4.9 0 8.7 1.6 3.8 1.5 6.4 4.6z"/><path class="a" d="m1812.6 585.2q-3.9 2.3-9.9 2.3-5.4 0-9.7-2.5-4.4-2.5-7.4-7-3-4.4-4.6-10.5-1.7-6.1-1.7-13.4 0-7.3 1.7-13.4 1.6-6.2 4.7-10.6 3-4.5 7.4-6.9 4.3-2.5 9.6-2.5 5.5 0 9.6 2 4.2 2 6.8 5.8l-6.2 7.5q-3.7-5.3-9.5-5.3-3.3 0-5.7 1.9-2.4 1.8-4 5-1.7 3.1-2.5 7.4-0.8 4.2-0.8 9.1 0 4.7 0.8 9 0.8 4.3 2.5 7.4 1.6 3.2 4 5 2.5 1.8 5.8 1.8 3.2 0 5.5-1.6 2.3-1.6 3.8-3.9l6.2 7.3q-2.5 3.7-6.4 6.1z"/><path class="a" d="m1828.1 522.3h10.8v63.6h-10.8z"/><path class="a" d="m1853.4 585.9v-63.6h28.4v9.5h-18.1v16.9h16.8v8.8h-16.8v18.8h19v9.6z"/><path class="a" d="m1921.9 585.9l-18.1-44.9h-0.2l0.1 44.9h-9.7v-63.6h12.3l17.9 45.2h0.3l-0.1-45.2h9.3v63.6z"/><path class="a" d="m1964.1 531.5v54.4h-10.6v-54.4h-12v-9.2h34.5v9.2z"/><path class="a" d="m1983.8 522.3h10.8v63.6h-10.8z"/><path class="a" d="m2019.8 532v17.4h16.4v9.2h-16.3v27.3h-10.8v-63.6h28.4v9.7z"/><path class="a" d="m2048 522.3h10.8v63.6h-10.8z"/><path class="a" d="m2103.7 585.2q-3.9 2.3-9.8 2.3-5.4 0-9.7-2.5-4.4-2.5-7.4-7-3-4.4-4.7-10.5-1.6-6.1-1.6-13.4 0-7.3 1.6-13.4 1.7-6.2 4.7-10.6 3.1-4.5 7.4-6.9 4.4-2.5 9.7-2.5 5.5 0 9.6 2 4.1 2 6.7 5.8l-6.2 7.5q-3.6-5.3-9.5-5.3-3.2 0-5.6 1.9-2.5 1.8-4.1 5-1.6 3.1-2.4 7.4-0.8 4.2-0.8 9.1 0 4.7 0.8 9 0.8 4.3 2.4 7.4 1.6 3.2 4.1 5 2.5 1.8 5.8 1.8 3.1 0 5.4-1.6 2.3-1.6 3.9-3.9l6.1 7.3q-2.5 3.7-6.4 6.1z"/><path class="a" d="m2145.8 585.9l-3.2-13.5h-16.7l-3.2 13.5h-10.8l15.8-63.6h13.8l15.5 63.6zm-11.2-53.4h-0.4l-6.9 31.5h14z"/><path class="a" d="m2240.2 585.9l-3.1-13.5h-16.7l-3.3 13.5h-10.7l15.8-63.6h13.7l15.5 63.6zm-11.2-53.4h-0.3l-7 31.5h14z"/><path class="a" d="m2197.7 557.8h-30v-9.5h30z"/></g></g></svg>