<?xml version="1.0" standalone="no"?>
<!DOCTYPE svg PUBLIC "-//W3C//DTD SVG 20010904//EN"
 "http://www.w3.org/TR/2001/REC-SVG-20010904/DTD/svg10.dtd">
<svg version="1.0" xmlns="http://www.w3.org/2000/svg"
 width="2442.000000pt" height="2442.000000pt" viewBox="0 0 2442.000000 2442.000000"
 preserveAspectRatio="xMidYMid meet">
<metadata>
Created by potrace 1.16, written by Peter Selinger 2001-2019
</metadata>
<rect width="2442" height="2442" fill="#CBC6C5"/>

<!-- Vele e bandiere (bianco) -->
<path fill="#ffffff" d="M 1120.0 358.5 L 1115.0 358.5 L 1110.0 358.5 L 1106.0 357.5 L 1101.0 357.5 L 1097.0 356.5 L 1092.5 356.0 L 1088.5 355.0 L 1085.0 353.5 L 1081.0 352.5 L 1077.0 351.5 L 1073.5 350.0 L 1070.0 348.5 L 1067.0 346.5 L 1063.0 345.5 L 1059.5 344.0 L 1056.0 342.5 L 1052.5 341.0 L 1049.0 339.5 L 1045.0 338.5 L 1041.5 337.0 L 1038.0 335.5 L 1034.0 334.5 L 1030.5 333.0 L 1027.0 331.5 L 1023.0 330.5 L 1019.5 329.0 L 1016.0 327.5 L 1012.0 326.5 L 1008.5 325.0 L 1005.0 323.5 L 1001.5 322.0 L 998.0 320.5 L 994.0 319.5 L 990.0 318.5 L 986.0 317.5 L 981.5 317.0 L 977.0 316.5 L 973.0 315.5 L 968.0 315.5 L 963.0 315.5 L 958.0 315.5 L 953.0 315.5 L 949.0 316.5 L 944.5 317.0 L 940.0 317.5 L 936.0 318.5 L 932.0 319.5 L 928.5 321.0 L 925.0 322.5 L 921.0 323.5 L 917.5 325.0 L 914.0 326.5 L 910.0 327.5 L 906.5 329.0 L 903.0 330.5 L 899.0 331.5 L 895.0 332.5 L 892.0 334.5 L 888.0 335.5 L 884.0 336.5 L 880.5 338.0 L 877.0 339.5 L 873.0 340.5 L 874.5 338.0 L 877.0 335.5 L 879.0 332.5 L 881.5 330.0 L 884.0 327.5 L 886.5 325.0 L 888.5 322.0 L 891.0 319.5 L 893.0 316.5 L 895.5 314.0 L 897.5 311.0 L 899.5 308.0 L 901.5 305.0 L 903.5 302.0 L 905.0 298.5 L 906.5 295.0 L 906.5 290.0 L 906.5 285.0 L 905.5 281.0 L 904.5 277.0 L 902.5 274.0 L 900.0 271.5 L 897.0 269.5 L 894.0 267.5 L 890.5 266.0 L 886.5 265.0 L 882.0 264.5 L 878.0 263.5 L 874.0 262.5 L 870.0 261.5 L 870.0 259.5 L 873.5 258.0 L 877.0 256.5 L 881.0 255.5 L 885.0 254.5 L 888.5 253.0 L 892.0 251.5 L 896.0 250.5 L 899.5 249.0 L 903.0 247.5 L 907.0 246.5 L 910.0 244.5 L 914.0 243.5 L 918.0 242.5 L 922.0 241.5 L 925.5 240.0 L 929.5 239.0 L 934.0 238.5 L 938.0 237.5 L 942.0 236.5 L 946.5 236.0 L 951.0 235.5 L 956.0 235.5 L 960.0 234.5 L 965.0 234.5 L 970.0 234.5 L 974.0 235.5 L 979.0 235.5 L 983.0 236.5 L 988.0 236.5 L 992.0 237.5 L 996.0 238.5 L 1000.0 239.5 L 1004.0 240.5 L 1008.0 241.5 L 1011.5 243.0 L 1015.0 244.5 L 1018.5 246.0 L 1022.0 247.5 L 1025.5 249.0 L 1029.0 250.5 L 1032.0 252.5 L 1036.0 253.5 L 1039.0 255.5 L 1043.0 256.5 L 1046.0 258.5 L 1050.0 259.5 L 1053.5 261.0 L 1057.0 262.5 L 1061.0 263.5 L 1064.0 265.5 L 1068.0 266.5 L 1071.0 268.5 L 1074.5 270.0 L 1078.0 271.5 L 1081.5 273.0 L 1085.0 274.5 L 1088.5 276.0 L 1092.0 277.5 L 1096.0 278.5 L 1099.5 280.0 L 1103.5 281.0 L 1107.5 282.0 L 1112.0 282.5 L 1116.0 283.5 L 1120.0 284.5 L 1125.0 284.5 L 1130.0 284.5 L 1135.0 284.5 L 1140.0 284.5 L 1145.0 284.5 L 1149.0 283.5 L 1153.5 283.0 L 1158.0 282.5 L 1162.0 281.5 L 1166.0 280.5 L 1170.0 279.5 L 1174.0 278.5 L 1177.5 277.0 L 1181.0 275.5 L 1185.0 274.5 L 1188.0 272.5 L 1192.0 271.5 L 1195.0 269.5 L 1198.5 268.0 L 1202.0 266.5 L 1205.5 265.0 L 1209.0 263.5 L 1212.0 261.5 L 1215.5 260.0 L 1219.0 258.5 L 1222.5 257.0 L 1226.0 255.5 L 1229.0 253.5 L 1233.0 252.5 L 1236.0 250.5 L 1239.5 249.0 L 1243.0 247.5 L 1246.5 246.0 L 1250.0 244.5 L 1253.0 242.5 L 1256.5 241.0 L 1260.0 239.5 L 1263.5 238.0 L 1267.0 236.5 L 1270.5 235.0 L 1274.0 233.5 L 1277.0 231.5 L 1280.5 230.0 L 1284.0 228.5 L 1287.5 227.0 L 1291.0 225.5 L 1294.5 224.0 L 1298.0 222.5 L 1302.0 221.5 L 1306.0 220.5 L 1309.5 219.0 L 1313.5 218.0 L 1317.5 217.0 L 1322.0 216.5 L 1326.0 215.5 L 1331.0 215.5 L 1335.5 215.0 L 1339.5 215.0 L 1344.0 215.5 L 1349.0 215.5 L 1353.0 216.5 L 1357.0 217.5 L 1361.5 218.0 L 1365.0 219.5 L 1369.0 220.5 L 1373.0 221.5 L 1376.0 223.5 L 1380.0 224.5 L 1383.0 226.5 L 1386.0 228.5 L 1389.5 230.0 L 1392.5 232.0 L 1395.5 234.0 L 1398.5 236.0 L 1401.5 238.0 L 1404.0 240.5 L 1407.0 242.5 L 1409.5 245.0 L 1412.5 247.0 L 1415.0 249.5 L 1418.0 251.5 L 1420.5 254.0 L 1423.5 256.0 L 1426.5 258.0 L 1429.0 260.5 L 1432.0 262.5 L 1435.0 264.5 L 1438.0 266.5 L 1441.0 268.5 L 1444.5 270.0 L 1447.5 272.0 L 1451.0 273.5 L 1454.0 275.5 L 1457.0 277.5 L 1460.5 279.0 L 1464.0 280.5 L 1467.0 282.5 L 1471.0 283.5 L 1474.0 285.5 L 1478.0 286.5 L 1481.0 288.5 L 1485.0 289.5 L 1488.5 291.0 L 1492.0 292.5 L 1496.0 293.5 L 1500.0 294.5 L 1503.5 296.0 L 1507.0 297.5 L 1511.0 298.5 L 1515.0 299.5 L 1519.0 300.5 L 1523.0 301.5 L 1527.0 302.5 L 1531.5 303.0 L 1536.0 303.5 L 1540.0 304.5 L 1544.0 305.5 L 1548.5 306.0 L 1553.0 306.5 L 1557.0 307.5 L 1561.5 308.0 L 1566.0 308.5 L 1570.0 309.5 L 1574.0 310.5 L 1578.0 311.5 L 1582.0 312.5 L 1586.0 313.5 L 1590.0 314.5 L 1594.0 315.5 L 1597.0 317.5 L 1600.5 319.0 L 1602.0 321.5 L 1597.0 321.5 L 1593.0 322.5 L 1588.0 322.5 L 1583.0 322.5 L 1578.0 322.5 L 1573.0 322.5 L 1569.0 321.5 L 1564.0 321.5 L 1559.0 321.5 L 1554.0 321.5 L 1550.0 320.5 L 1545.0 320.5 L 1540.0 320.5 L 1536.0 319.5 L 1531.0 319.5 L 1527.0 318.5 L 1522.0 318.5 L 1518.0 317.5 L 1514.0 316.5 L 1509.0 316.5 L 1505.0 315.5 L 1501.0 314.5 L 1496.5 314.0 L 1492.0 313.5 L 1488.0 312.5 L 1484.0 311.5 L 1480.0 310.5 L 1476.0 309.5 L 1472.0 308.5 L 1468.0 307.5 L 1464.0 306.5 L 1460.5 305.0 L 1457.0 303.5 L 1453.0 302.5 L 1449.0 301.5 L 1445.5 300.0 L 1442.0 298.5 L 1438.0 297.5 L 1434.5 296.0 L 1431.0 294.5 L 1427.5 293.0 L 1424.0 291.5 L 1421.0 289.5 L 1417.0 288.5 L 1414.0 286.5 L 1411.0 284.5 L 1407.5 283.0 L 1404.0 281.5 L 1401.0 279.5 L 1398.0 277.5 L 1395.0 275.5 L 1392.0 273.5 L 1389.0 271.5 L 1386.0 269.5 L 1383.5 267.0 L 1380.5 265.0 L 1377.5 263.0 L 1374.0 261.5 L 1371.0 259.5 L 1367.5 258.0 L 1364.0 256.5 L 1360.0 255.5 L 1356.0 254.5 L 1351.5 254.0 L 1347.0 253.5 L 1342.0 253.5 L 1337.0 253.5 L 1333.0 254.5 L 1328.5 255.0 L 1324.5 256.0 L 1320.5 257.0 L 1316.5 258.0 L 1313.0 259.5 L 1309.0 260.5 L 1306.0 262.5 L 1302.0 263.5 L 1299.0 265.5 L 1295.0 266.5 L 1292.0 268.5 L 1288.5 270.0 L 1285.0 271.5 L 1282.0 273.5 L 1279.0 275.5 L 1275.5 277.0 L 1272.0 278.5 L 1269.0 280.5 L 1266.0 282.5 L 1263.0 284.5 L 1260.0 286.5 L 1257.0 288.5 L 1253.5 290.0 L 1250.5 292.0 L 1247.5 294.0 L 1244.5 296.0 L 1241.5 298.0 L 1238.5 300.0 L 1235.5 302.0 L 1232.5 304.0 L 1229.5 306.0 L 1226.5 308.0 L 1223.5 310.0 L 1220.5 312.0 L 1217.5 314.0 L 1214.5 316.0 L 1211.5 318.0 L 1208.5 320.0 L 1205.5 322.0 L 1202.5 324.0 L 1199.5 326.0 L 1196.0 327.5 L 1193.0 329.5 L 1190.0 331.5 L 1187.0 333.5 L 1184.0 335.5 L 1180.5 337.0 L 1177.5 339.0 L 1174.0 340.5 L 1171.0 342.5 L 1167.5 344.0 L 1164.0 345.5 L 1161.0 347.5 L 1157.0 348.5 L 1154.0 350.5 L 1150.0 351.5 L 1146.0 352.5 L 1142.5 354.0 L 1138.5 355.0 L 1134.5 356.0 L 1130.0 356.5 L 1126.0 357.5 L 1121.0 357.5 Z"/>
<path fill="#ffffff" d="M 1209.0 891.5 L 1206.5 889.0 L 1204.5 886.0 L 1202.5 883.0 L 1200.5 880.0 L 1198.0 877.5 L 1196.0 874.5 L 1193.5 872.0 L 1191.5 869.0 L 1189.5 866.0 L 1187.0 863.5 L 1184.5 861.0 L 1182.5 858.0 L 1180.0 855.5 L 1178.0 852.5 L 1175.5 850.0 L 1173.5 847.0 L 1171.0 844.5 L 1168.5 842.0 L 1166.5 839.0 L 1164.0 836.5 L 1161.5 834.0 L 1159.0 831.5 L 1157.0 828.5 L 1154.5 826.0 L 1152.0 823.5 L 1149.5 821.0 L 1147.0 818.5 L 1144.5 816.0 L 1142.5 813.0 L 1140.0 810.5 L 1137.5 808.0 L 1135.0 805.5 L 1132.5 803.0 L 1130.0 800.5 L 1127.5 798.0 L 1125.0 795.5 L 1122.5 793.0 L 1120.0 790.5 L 1117.5 788.0 L 1115.0 785.5 L 1112.0 783.5 L 1109.5 781.0 L 1107.0 778.5 L 1104.5 776.0 L 1102.0 773.5 L 1099.5 771.0 L 1097.0 768.5 L 1094.0 766.5 L 1091.5 764.0 L 1089.0 761.5 L 1086.5 759.0 L 1083.5 757.0 L 1081.0 754.5 L 1078.5 752.0 L 1076.0 749.5 L 1073.0 747.5 L 1070.5 745.0 L 1068.0 742.5 L 1065.0 740.5 L 1062.5 738.0 L 1060.0 735.5 L 1057.0 733.5 L 1054.5 731.0 L 1052.0 728.5 L 1049.0 726.5 L 1046.5 724.0 L 1043.5 722.0 L 1041.0 719.5 L 1038.5 717.0 L 1035.5 715.0 L 1033.0 712.5 L 1030.0 710.5 L 1027.5 708.0 L 1025.0 705.5 L 1022.0 703.5 L 1019.0 701.5 L 1016.5 699.0 L 1014.0 696.5 L 1011.0 694.5 L 1008.5 692.0 L 1005.5 690.0 L 1003.0 687.5 L 1000.0 685.5 L 997.5 683.0 L 994.5 681.0 L 992.0 678.5 L 989.0 676.5 L 986.5 674.0 L 983.5 672.0 L 981.0 669.5 L 978.0 667.5 L 975.0 665.5 L 972.5 663.0 L 970.0 660.5 L 967.0 658.5 L 964.0 656.5 L 961.5 654.0 L 958.5 652.0 L 956.0 649.5 L 953.0 647.5 L 950.5 645.0 L 947.5 643.0 L 945.0 640.5 L 942.0 638.5 L 939.0 636.5 L 936.5 634.0 L 933.5 632.0 L 931.0 629.5 L 928.0 627.5 L 925.5 625.0 L 922.5 623.0 L 920.0 620.5 L 917.0 618.5 L 914.0 616.5 L 911.5 614.0 L 908.5 612.0 L 906.0 609.5 L 903.0 607.5 L 900.5 605.0 L 897.5 603.0 L 895.0 600.5 L 892.0 598.5 L 889.0 596.5 L 886.5 594.0 L 883.5 592.0 L 881.0 589.5 L 878.0 587.5 L 875.5 585.0 L 872.5 583.0 L 870.0 580.5 L 867.0 578.5 L 864.0 576.5 L 861.5 574.0 L 858.5 572.0 L 856.0 569.5 L 853.0 567.5 L 850.5 565.0 L 847.5 563.0 L 845.0 560.5 L 842.0 558.5 L 839.0 556.5 L 836.5 554.0 L 833.5 552.0 L 831.0 549.5 L 828.0 547.5 L 825.0 545.5 L 822.5 543.0 L 819.5 541.0 L 817.0 538.5 L 814.0 536.5 L 811.0 534.5 L 808.5 532.0 L 805.5 530.0 L 803.0 527.5 L 800.0 525.5 L 797.5 523.0 L 794.5 521.0 L 791.5 519.0 L 789.0 516.5 L 786.0 514.5 L 783.5 512.0 L 780.5 510.0 L 777.5 508.0 L 775.0 505.5 L 772.0 503.5 L 769.5 501.0 L 766.5 499.0 L 763.5 497.0 L 761.0 494.5 L 758.0 492.5 L 755.0 490.5 L 752.5 488.0 L 749.5 486.0 L 747.0 483.5 L 744.0 481.5 L 741.0 479.5 L 738.5 477.0 L 735.5 475.0 L 732.5 473.0 L 730.0 470.5 L 727.0 468.5 L 724.0 466.5 L 721.5 464.0 L 718.5 462.0 L 716.0 459.5 L 713.0 457.5 L 710.0 455.5 L 707.0 453.5 L 704.5 451.0 L 701.5 449.0 L 698.5 447.0 L 696.0 444.5 L 693.0 442.5 L 690.0 440.5 L 687.0 438.5 L 684.5 436.0 L 681.5 434.0 L 678.5 432.0 L 677.0 429.5 L 682.0 429.5 L 687.0 429.5 L 692.0 429.5 L 697.0 429.5 L 701.0 430.5 L 706.0 430.5 L 711.0 430.5 L 716.0 430.5 L 721.0 430.5 L 726.0 430.5 L 731.0 430.5 L 736.0 430.5 L 740.0 431.5 L 745.0 431.5 L 750.0 431.5 L 755.0 431.5 L 760.0 431.5 L 764.0 432.5 L 769.0 432.5 L 774.0 432.5 L 779.0 432.5 L 783.0 433.5 L 788.0 433.5 L 793.0 433.5 L 797.0 434.5 L 802.0 434.5 L 807.0 434.5 L 811.0 435.5 L 816.0 435.5 L 820.5 436.0 L 825.0 436.5 L 830.0 436.5 L 834.0 437.5 L 839.0 437.5 L 843.0 438.5 L 848.0 438.5 L 852.0 439.5 L 857.0 439.5 L 861.0 440.5 L 866.0 440.5 L 870.0 441.5 L 875.0 441.5 L 879.0 442.5 L 884.0 442.5 L 888.0 443.5 L 892.0 444.5 L 897.0 444.5 L 901.0 445.5 L 905.0 446.5 L 910.0 446.5 L 914.0 447.5 L 918.0 448.5 L 923.0 448.5 L 927.0 449.5 L 931.0 450.5 L 935.0 451.5 L 939.5 452.0 L 944.0 452.5 L 948.0 453.5 L 952.0 454.5 L 956.0 455.5 L 960.0 456.5 L 964.5 457.0 L 968.5 458.0 L 973.0 458.5 L 977.0 459.5 L 981.0 460.5 L 985.0 461.5 L 989.0 462.5 L 993.0 463.5 L 997.0 464.5 L 1000.5 466.0 L 1004.5 467.0 L 1008.5 468.0 L 1012.0 469.5 L 1016.0 470.5 L 1020.0 471.5 L 1024.0 472.5 L 1027.5 474.0 L 1031.0 475.5 L 1035.0 476.5 L 1039.0 477.5 L 1042.0 479.5 L 1046.0 480.5 L 1049.5 482.0 L 1053.0 483.5 L 1057.0 484.5 L 1060.0 486.5 L 1064.0 487.5 L 1067.0 489.5 L 1071.0 490.5 L 1074.0 492.5 L 1077.5 494.0 L 1081.0 495.5 L 1084.0 497.5 L 1087.5 499.0 L 1091.0 500.5 L 1094.0 502.5 L 1097.0 504.5 L 1100.5 506.0 L 1103.5 508.0 L 1106.5 510.0 L 1109.5 512.0 L 1112.5 514.0 L 1115.5 516.0 L 1118.5 518.0 L 1121.5 520.0 L 1124.0 522.5 L 1127.0 524.5 L 1129.5 527.0 L 1132.5 529.0 L 1135.0 531.5 L 1137.5 534.0 L 1140.0 536.5 L 1142.5 539.0 L 1144.5 542.0 L 1147.0 544.5 L 1149.5 547.0 L 1151.5 550.0 L 1153.5 553.0 L 1155.5 556.0 L 1157.5 559.0 L 1159.5 562.0 L 1161.5 565.0 L 1163.5 568.0 L 1165.5 571.0 L 1167.5 574.0 L 1169.5 577.0 L 1171.5 580.0 L 1173.5 583.0 L 1175.0 586.5 L 1177.0 589.5 L 1178.5 593.0 L 1180.5 596.0 L 1182.0 599.5 L 1183.5 603.0 L 1185.5 606.0 L 1187.5 609.0 L 1189.0 612.5 L 1190.5 616.0 L 1192.0 619.5 L 1193.5 623.0 L 1195.5 626.0 L 1196.5 630.0 L 1198.5 633.0 L 1199.5 637.0 L 1201.5 640.0 L 1202.5 644.0 L 1204.5 647.0 L 1205.5 651.0 L 1207.0 654.5 L 1208.5 658.0 L 1209.5 662.0 L 1211.0 665.5 L 1212.5 669.0 L 1213.5 673.0 L 1215.0 676.5 L 1216.5 680.0 L 1217.5 684.0 L 1218.5 688.0 L 1219.5 692.0 L 1220.5 696.0 L 1222.0 699.5 L 1223.0 703.5 L 1224.0 707.5 L 1225.0 711.5 L 1226.0 715.5 L 1227.0 719.5 L 1227.5 724.0 L 1228.5 728.0 L 1229.5 732.0 L 1230.5 736.0 L 1231.0 740.5 L 1231.5 745.0 L 1232.5 749.0 L 1233.0 753.5 L 1233.5 758.0 L 1234.0 762.5 L 1234.5 767.0 L 1234.5 772.0 L 1235.5 776.0 L 1235.5 781.0 L 1235.5 786.0 L 1235.5 791.0 L 1235.5 796.0 L 1235.5 801.0 L 1235.5 806.0 L 1234.5 810.0 L 1234.5 815.0 L 1234.0 819.5 L 1233.5 824.0 L 1232.5 828.0 L 1232.0 832.5 L 1231.5 837.0 L 1230.5 841.0 L 1229.5 845.0 L 1228.5 849.0 L 1227.5 853.0 L 1226.0 856.5 L 1224.5 860.0 L 1223.5 864.0 L 1221.5 867.0 L 1220.5 871.0 L 1218.5 874.0 L 1217.0 877.5 L 1215.5 881.0 L 1213.5 884.0 L 1211.5 887.0 L 1209.5 890.0 Z"/>
<path fill="#ffffff" d="M 1602.0 635.5 L 1597.0 635.5 L 1592.0 635.5 L 1587.0 635.5 L 1583.0 634.5 L 1578.5 634.0 L 1574.5 633.0 L 1571.0 631.5 L 1567.0 630.5 L 1563.5 629.0 L 1560.0 627.5 L 1556.5 626.0 L 1553.0 624.5 L 1549.0 623.5 L 1545.5 622.0 L 1542.0 620.5 L 1538.0 619.5 L 1534.5 618.0 L 1531.0 616.5 L 1527.0 615.5 L 1524.0 613.5 L 1520.0 612.5 L 1516.0 611.5 L 1512.5 610.0 L 1508.0 609.5 L 1504.0 608.5 L 1499.5 608.0 L 1495.0 607.5 L 1490.0 607.5 L 1486.0 608.5 L 1481.0 608.5 L 1477.0 609.5 L 1473.0 610.5 L 1469.5 612.0 L 1466.0 613.5 L 1462.0 614.5 L 1458.5 616.0 L 1455.0 617.5 L 1451.0 618.5 L 1447.5 620.0 L 1444.0 621.5 L 1440.0 622.5 L 1436.0 623.5 L 1437.0 620.5 L 1439.5 618.0 L 1442.0 615.5 L 1444.5 613.0 L 1446.5 610.0 L 1449.0 607.5 L 1451.0 604.5 L 1453.0 601.5 L 1455.0 598.5 L 1456.5 595.0 L 1457.5 591.0 L 1456.5 587.0 L 1455.5 583.0 L 1453.5 580.0 L 1451.0 577.5 L 1448.0 575.5 L 1444.0 574.5 L 1440.0 573.5 L 1435.0 573.5 L 1432.0 571.5 L 1434.5 570.0 L 1438.0 568.5 L 1442.0 567.5 L 1446.0 566.5 L 1449.5 565.0 L 1453.0 563.5 L 1457.0 562.5 L 1460.0 560.5 L 1464.0 559.5 L 1468.0 558.5 L 1472.0 557.5 L 1476.0 556.5 L 1480.0 555.5 L 1485.0 555.5 L 1489.0 554.5 L 1494.0 554.5 L 1499.0 554.5 L 1504.0 554.5 L 1508.0 555.5 L 1512.0 556.5 L 1516.5 557.0 L 1520.0 558.5 L 1524.0 559.5 L 1528.0 560.5 L 1531.5 562.0 L 1535.0 563.5 L 1538.0 565.5 L 1541.5 567.0 L 1545.0 568.5 L 1549.0 569.5 L 1552.0 571.5 L 1556.0 572.5 L 1559.5 574.0 L 1563.0 575.5 L 1566.5 577.0 L 1570.0 578.5 L 1573.0 580.5 L 1577.0 581.5 L 1580.5 583.0 L 1584.0 584.5 L 1588.0 585.5 L 1592.0 586.5 L 1597.0 586.5 L 1601.0 587.5 L 1606.0 587.5 L 1611.0 587.5 L 1615.0 586.5 L 1619.5 586.0 L 1624.0 585.5 L 1628.0 584.5 L 1632.0 583.5 L 1635.5 582.0 L 1639.0 580.5 L 1642.5 579.0 L 1646.0 577.5 L 1649.5 576.0 L 1653.0 574.5 L 1656.0 572.5 L 1659.5 571.0 L 1663.0 569.5 L 1666.5 568.0 L 1670.0 566.5 L 1673.0 564.5 L 1677.0 563.5 L 1680.0 561.5 L 1683.5 560.0 L 1687.0 558.5 L 1690.5 557.0 L 1694.0 555.5 L 1697.0 553.5 L 1701.0 552.5 L 1704.0 550.5 L 1707.5 549.0 L 1711.0 547.5 L 1715.0 546.5 L 1718.5 545.0 L 1722.0 543.5 L 1726.5 543.0 L 1731.0 542.5 L 1735.0 541.5 L 1740.0 541.5 L 1745.0 541.5 L 1749.0 542.5 L 1753.5 543.0 L 1757.5 544.0 L 1761.0 545.5 L 1765.0 546.5 L 1768.0 548.5 L 1771.5 550.0 L 1774.5 552.0 L 1777.5 554.0 L 1780.5 556.0 L 1783.5 558.0 L 1786.0 560.5 L 1789.0 562.5 L 1791.5 565.0 L 1794.5 567.0 L 1797.0 569.5 L 1800.0 571.5 L 1803.0 573.5 L 1806.0 575.5 L 1809.0 577.5 L 1812.5 579.0 L 1815.5 581.0 L 1819.0 582.5 L 1822.0 584.5 L 1825.5 586.0 L 1829.0 587.5 L 1832.5 589.0 L 1836.0 590.5 L 1840.0 591.5 L 1843.5 593.0 L 1847.0 594.5 L 1851.0 595.5 L 1855.0 596.5 L 1859.0 597.5 L 1863.0 598.5 L 1867.0 599.5 L 1871.0 600.5 L 1876.0 600.5 L 1880.0 601.5 L 1884.0 602.5 L 1889.0 602.5 L 1893.0 603.5 L 1897.0 604.5 L 1901.0 605.5 L 1905.0 606.5 L 1908.5 608.0 L 1912.0 609.5 L 1912.0 611.5 L 1907.0 611.5 L 1903.0 612.5 L 1898.0 612.5 L 1893.5 612.0 L 1889.0 611.5 L 1884.0 611.5 L 1879.0 611.5 L 1875.0 610.5 L 1870.0 610.5 L 1865.5 610.0 L 1861.0 609.5 L 1857.0 608.5 L 1852.0 608.5 L 1848.0 607.5 L 1844.0 606.5 L 1840.0 605.5 L 1835.5 605.0 L 1831.5 604.0 L 1827.5 603.0 L 1824.0 601.5 L 1820.0 600.5 L 1816.0 599.5 L 1812.0 598.5 L 1808.5 597.0 L 1805.0 595.5 L 1801.5 594.0 L 1798.0 592.5 L 1794.5 591.0 L 1791.0 589.5 L 1788.0 587.5 L 1784.5 586.0 L 1781.5 584.0 L 1778.5 582.0 L 1775.5 580.0 L 1772.5 578.0 L 1769.5 576.0 L 1766.5 574.0 L 1763.5 572.0 L 1760.0 570.5 L 1756.5 569.0 L 1752.5 568.0 L 1748.0 567.5 L 1743.0 567.5 L 1738.0 567.5 L 1734.0 568.5 L 1729.5 569.0 L 1726.0 570.5 L 1722.0 571.5 L 1718.5 573.0 L 1715.0 574.5 L 1711.5 576.0 L 1708.0 577.5 L 1705.0 579.5 L 1701.5 581.0 L 1698.5 583.0 L 1695.0 584.5 L 1692.0 586.5 L 1689.0 588.5 L 1686.0 590.5 L 1683.0 592.5 L 1680.0 594.5 L 1677.0 596.5 L 1674.0 598.5 L 1671.0 600.5 L 1668.0 602.5 L 1665.0 604.5 L 1662.0 606.5 L 1659.0 608.5 L 1656.0 610.5 L 1653.0 612.5 L 1649.5 614.0 L 1646.5 616.0 L 1643.5 618.0 L 1640.5 620.0 L 1637.0 621.5 L 1634.0 623.5 L 1630.5 625.0 L 1627.5 627.0 L 1624.0 628.5 L 1620.5 630.0 L 1617.0 631.5 L 1613.0 632.5 L 1609.0 633.5 L 1605.0 634.5 Z"/>
<path fill="#ffffff" d="M 1595.0 884.5 L 1593.0 881.5 L 1591.0 878.5 L 1588.5 876.0 L 1586.5 873.0 L 1584.5 870.0 L 1582.0 867.5 L 1579.5 865.0 L 1577.0 862.5 L 1574.5 860.0 L 1572.0 857.5 L 1569.5 855.0 L 1567.0 852.5 L 1564.5 850.0 L 1562.0 847.5 L 1559.5 845.0 L 1557.0 842.5 L 1554.0 840.5 L 1551.5 838.0 L 1549.0 835.5 L 1546.0 833.5 L 1543.5 831.0 L 1540.5 829.0 L 1538.0 826.5 L 1535.0 824.5 L 1532.0 822.5 L 1529.5 820.0 L 1526.5 818.0 L 1524.0 815.5 L 1521.0 813.5 L 1518.0 811.5 L 1515.0 809.5 L 1512.5 807.0 L 1509.5 805.0 L 1506.5 803.0 L 1503.5 801.0 L 1501.0 798.5 L 1498.0 796.5 L 1495.0 794.5 L 1492.0 792.5 L 1489.0 790.5 L 1486.0 788.5 L 1483.0 786.5 L 1480.0 784.5 L 1477.5 782.0 L 1474.5 780.0 L 1471.5 778.0 L 1468.5 776.0 L 1465.5 774.0 L 1462.5 772.0 L 1459.5 770.0 L 1456.5 768.0 L 1453.5 766.0 L 1450.5 764.0 L 1447.5 762.0 L 1444.5 760.0 L 1441.5 758.0 L 1438.5 756.0 L 1435.5 754.0 L 1432.5 752.0 L 1429.5 750.0 L 1426.5 748.0 L 1423.5 746.0 L 1420.5 744.0 L 1417.0 742.5 L 1414.0 740.5 L 1411.0 738.5 L 1408.0 736.5 L 1405.0 734.5 L 1402.0 732.5 L 1399.0 730.5 L 1396.0 728.5 L 1393.0 726.5 L 1390.0 724.5 L 1387.0 722.5 L 1384.0 720.5 L 1381.0 718.5 L 1378.0 716.5 L 1375.0 714.5 L 1372.0 712.5 L 1369.0 710.5 L 1365.5 709.0 L 1362.5 707.0 L 1359.5 705.0 L 1356.5 703.0 L 1353.5 701.0 L 1350.5 699.0 L 1347.5 697.0 L 1344.5 695.0 L 1346.0 693.5 L 1351.0 693.5 L 1356.0 693.5 L 1360.0 694.5 L 1365.0 694.5 L 1370.0 694.5 L 1374.0 695.5 L 1379.0 695.5 L 1384.0 695.5 L 1388.0 696.5 L 1393.0 696.5 L 1397.0 697.5 L 1402.0 697.5 L 1406.0 698.5 L 1411.0 698.5 L 1415.0 699.5 L 1419.0 700.5 L 1424.0 700.5 L 1428.0 701.5 L 1432.0 702.5 L 1437.0 702.5 L 1441.0 703.5 L 1445.0 704.5 L 1449.0 705.5 L 1453.5 706.0 L 1458.0 706.5 L 1462.0 707.5 L 1466.0 708.5 L 1470.0 709.5 L 1474.0 710.5 L 1478.0 711.5 L 1482.0 712.5 L 1485.5 714.0 L 1489.0 715.5 L 1493.0 716.5 L 1497.0 717.5 L 1500.5 719.0 L 1504.0 720.5 L 1508.0 721.5 L 1511.0 723.5 L 1515.0 724.5 L 1518.0 726.5 L 1521.5 728.0 L 1524.5 730.0 L 1528.0 731.5 L 1531.0 733.5 L 1534.0 735.5 L 1537.0 737.5 L 1540.0 739.5 L 1542.5 742.0 L 1545.0 744.5 L 1547.5 747.0 L 1550.0 749.5 L 1552.5 752.0 L 1554.5 755.0 L 1556.5 758.0 L 1558.5 761.0 L 1560.5 764.0 L 1562.5 767.0 L 1564.5 770.0 L 1566.0 773.5 L 1567.5 777.0 L 1569.5 780.0 L 1571.0 783.5 L 1572.5 787.0 L 1574.5 790.0 L 1576.0 793.5 L 1577.5 797.0 L 1578.5 801.0 L 1580.5 804.0 L 1581.5 808.0 L 1583.0 811.5 L 1584.5 815.0 L 1585.5 819.0 L 1586.5 823.0 L 1587.5 827.0 L 1588.5 831.0 L 1590.0 834.5 L 1590.5 839.0 L 1591.5 843.0 L 1592.5 847.0 L 1593.5 851.0 L 1594.0 855.5 L 1594.5 860.0 L 1595.0 864.5 L 1595.5 869.0 L 1595.5 874.0 L 1595.5 879.0 L 1595.5 884.0 Z"/>
<path fill="#ffffff" d="M 1285.0 1373.5 L 1282.5 1371.0 L 1279.5 1369.0 L 1277.0 1366.5 L 1274.5 1364.0 L 1271.5 1362.0 L 1269.0 1359.5 L 1266.5 1357.0 L 1263.5 1355.0 L 1261.0 1352.5 L 1258.5 1350.0 L 1255.5 1348.0 L 1253.0 1345.5 L 1250.0 1343.5 L 1247.5 1341.0 L 1245.0 1338.5 L 1242.0 1336.5 L 1239.5 1334.0 L 1236.5 1332.0 L 1234.0 1329.5 L 1231.0 1327.5 L 1228.5 1325.0 L 1225.5 1323.0 L 1223.0 1320.5 L 1220.0 1318.5 L 1217.5 1316.0 L 1214.5 1314.0 L 1212.0 1311.5 L 1209.0 1309.5 L 1206.5 1307.0 L 1203.5 1305.0 L 1201.0 1302.5 L 1198.0 1300.5 L 1195.0 1298.5 L 1192.5 1296.0 L 1189.5 1294.0 L 1187.0 1291.5 L 1184.0 1289.5 L 1181.0 1287.5 L 1178.5 1285.0 L 1175.5 1283.0 L 1173.0 1280.5 L 1170.0 1278.5 L 1167.0 1276.5 L 1164.5 1274.0 L 1161.5 1272.0 L 1159.0 1269.5 L 1156.0 1267.5 L 1153.0 1265.5 L 1150.5 1263.0 L 1147.5 1261.0 L 1144.5 1259.0 L 1142.0 1256.5 L 1139.0 1254.5 L 1136.0 1252.5 L 1133.5 1250.0 L 1130.5 1248.0 L 1128.0 1245.5 L 1125.0 1243.5 L 1122.0 1241.5 L 1119.0 1239.5 L 1116.5 1237.0 L 1113.5 1235.0 L 1111.0 1232.5 L 1108.0 1230.5 L 1105.0 1228.5 L 1102.0 1226.5 L 1099.5 1224.0 L 1096.5 1222.0 L 1094.0 1219.5 L 1091.0 1217.5 L 1088.0 1215.5 L 1085.5 1213.0 L 1082.5 1211.0 L 1079.5 1209.0 L 1077.0 1206.5 L 1074.0 1204.5 L 1071.0 1202.5 L 1068.5 1200.0 L 1065.5 1198.0 L 1063.0 1195.5 L 1060.0 1193.5 L 1057.0 1191.5 L 1054.5 1189.0 L 1051.5 1187.0 L 1049.0 1184.5 L 1046.0 1182.5 L 1043.0 1180.5 L 1040.5 1178.0 L 1037.5 1176.0 L 1035.0 1173.5 L 1032.0 1171.5 L 1029.0 1169.5 L 1026.5 1167.0 L 1023.5 1165.0 L 1020.5 1163.0 L 1018.0 1160.5 L 1015.0 1158.5 L 1012.0 1156.5 L 1009.5 1154.0 L 1006.5 1152.0 L 1004.0 1149.5 L 1001.0 1147.5 L 998.0 1145.5 L 995.5 1143.0 L 992.5 1141.0 L 990.0 1138.5 L 987.0 1136.5 L 984.0 1134.5 L 981.5 1132.0 L 978.5 1130.0 L 976.0 1127.5 L 973.0 1125.5 L 970.5 1123.0 L 967.5 1121.0 L 965.0 1118.5 L 962.0 1116.5 L 959.5 1114.0 L 956.5 1112.0 L 954.0 1109.5 L 951.0 1107.5 L 948.5 1105.0 L 946.0 1102.5 L 943.0 1100.5 L 940.5 1098.0 L 937.5 1096.0 L 935.0 1093.5 L 932.0 1091.5 L 929.5 1089.0 L 926.5 1087.0 L 924.0 1084.5 L 921.0 1082.5 L 918.5 1080.0 L 915.5 1078.0 L 913.0 1075.5 L 910.0 1073.5 L 907.5 1071.0 L 904.5 1069.0 L 902.0 1066.5 L 899.0 1064.5 L 896.5 1062.0 L 894.0 1059.5 L 891.0 1057.5 L 888.5 1055.0 L 885.5 1053.0 L 883.0 1050.5 L 880.0 1048.5 L 877.5 1046.0 L 874.5 1044.0 L 872.0 1041.5 L 869.5 1039.0 L 866.5 1037.0 L 864.0 1034.5 L 861.0 1032.5 L 858.5 1030.0 L 855.5 1028.0 L 853.0 1025.5 L 850.0 1023.5 L 847.5 1021.0 L 845.0 1018.5 L 842.0 1016.5 L 839.5 1014.0 L 836.5 1012.0 L 834.0 1009.5 L 831.0 1007.5 L 828.5 1005.0 L 826.0 1002.5 L 823.0 1000.5 L 820.5 998.0 L 817.5 996.0 L 815.0 993.5 L 812.0 991.5 L 809.5 989.0 L 806.5 987.0 L 804.0 984.5 L 801.0 982.5 L 798.5 980.0 L 795.5 978.0 L 793.0 975.5 L 790.0 973.5 L 787.5 971.0 L 784.5 969.0 L 782.0 966.5 L 779.0 964.5 L 776.5 962.0 L 773.5 960.0 L 771.0 957.5 L 768.0 955.5 L 765.5 953.0 L 762.5 951.0 L 760.0 948.5 L 757.0 946.5 L 754.5 944.0 L 751.5 942.0 L 749.0 939.5 L 746.0 937.5 L 743.0 935.5 L 740.5 933.0 L 737.5 931.0 L 735.0 928.5 L 732.0 926.5 L 729.0 924.5 L 726.5 922.0 L 723.5 920.0 L 720.5 918.0 L 718.0 915.5 L 715.0 913.5 L 712.0 911.5 L 709.5 909.0 L 706.5 907.0 L 703.5 905.0 L 700.5 903.0 L 698.0 900.5 L 695.0 898.5 L 692.0 896.5 L 689.0 894.5 L 686.0 892.5 L 683.0 890.5 L 680.0 888.5 L 677.0 886.5 L 674.0 884.5 L 671.0 882.5 L 668.0 880.5 L 665.0 878.5 L 665.0 876.5 L 669.0 877.5 L 674.0 877.5 L 678.0 878.5 L 683.0 878.5 L 687.0 879.5 L 691.0 880.5 L 696.0 880.5 L 700.0 881.5 L 705.0 881.5 L 709.0 882.5 L 713.0 883.5 L 718.0 883.5 L 722.0 884.5 L 727.0 884.5 L 731.0 885.5 L 735.0 886.5 L 740.0 886.5 L 744.0 887.5 L 748.5 888.0 L 753.0 888.5 L 757.0 889.5 L 761.5 890.0 L 766.0 890.5 L 770.0 891.5 L 775.0 891.5 L 779.0 892.5 L 783.0 893.5 L 788.0 893.5 L 792.0 894.5 L 796.0 895.5 L 801.0 895.5 L 805.0 896.5 L 809.0 897.5 L 814.0 897.5 L 818.0 898.5 L 822.0 899.5 L 827.0 899.5 L 831.0 900.5 L 835.0 901.5 L 839.5 902.0 L 844.0 902.5 L 848.0 903.5 L 852.5 904.0 L 857.0 904.5 L 861.0 905.5 L 865.0 906.5 L 870.0 906.5 L 874.0 907.5 L 878.0 908.5 L 882.0 909.5 L 887.0 909.5 L 891.0 910.5 L 895.0 911.5 L 899.5 912.0 L 904.0 912.5 L 908.0 913.5 L 912.0 914.5 L 916.5 915.0 L 921.0 915.5 L 925.0 916.5 L 929.0 917.5 L 933.0 918.5 L 937.5 919.0 L 942.0 919.5 L 946.0 920.5 L 950.0 921.5 L 954.0 922.5 L 958.5 923.0 L 963.0 923.5 L 967.0 924.5 L 971.0 925.5 L 975.0 926.5 L 979.0 927.5 L 983.5 928.0 L 988.0 928.5 L 992.0 929.5 L 996.0 930.5 L 1000.0 931.5 L 1004.0 932.5 L 1008.0 933.5 L 1012.5 934.0 L 1016.5 935.0 L 1021.0 935.5 L 1025.0 936.5 L 1029.0 937.5 L 1033.0 938.5 L 1037.0 939.5 L 1041.0 940.5 L 1045.0 941.5 L 1049.0 942.5 L 1053.0 943.5 L 1057.0 944.5 L 1061.0 945.5 L 1065.0 946.5 L 1069.0 947.5 L 1073.0 948.5 L 1077.0 949.5 L 1081.0 950.5 L 1085.0 951.5 L 1089.0 952.5 L 1093.0 953.5 L 1097.0 954.5 L 1101.0 955.5 L 1105.0 956.5 L 1109.0 957.5 L 1113.0 958.5 L 1117.0 959.5 L 1121.0 960.5 L 1124.5 962.0 L 1128.5 963.0 L 1132.0 964.5 L 1136.0 965.5 L 1140.0 966.5 L 1144.0 967.5 L 1147.5 969.0 L 1151.0 970.5 L 1155.0 971.5 L 1159.0 972.5 L 1162.5 974.0 L 1166.0 975.5 L 1170.0 976.5 L 1173.5 978.0 L 1177.0 979.5 L 1180.5 981.0 L 1184.0 982.5 L 1188.0 983.5 L 1191.0 985.5 L 1195.0 986.5 L 1198.0 988.5 L 1201.5 990.0 L 1205.0 991.5 L 1208.5 993.0 L 1211.5 995.0 L 1215.0 996.5 L 1218.0 998.5 L 1221.0 1000.5 L 1224.5 1002.0 L 1227.5 1004.0 L 1230.5 1006.0 L 1233.0 1008.5 L 1236.0 1010.5 L 1238.5 1013.0 L 1241.5 1015.0 L 1244.0 1017.5 L 1246.5 1020.0 L 1249.0 1022.5 L 1252.0 1024.5 L 1254.5 1027.0 L 1257.0 1029.5 L 1259.5 1032.0 L 1262.0 1034.5 L 1264.0 1037.5 L 1266.5 1040.0 L 1269.0 1042.5 L 1271.5 1045.0 L 1274.0 1047.5 L 1276.0 1050.5 L 1278.5 1053.0 L 1280.5 1056.0 L 1283.0 1058.5 L 1285.5 1061.0 L 1287.5 1064.0 L 1290.0 1066.5 L 1292.0 1069.5 L 1294.5 1072.0 L 1296.5 1075.0 L 1298.5 1078.0 L 1300.5 1081.0 L 1303.0 1083.5 L 1305.0 1086.5 L 1307.0 1089.5 L 1309.0 1092.5 L 1311.0 1095.5 L 1313.0 1098.5 L 1315.0 1101.5 L 1317.0 1104.5 L 1319.0 1107.5 L 1321.0 1110.5 L 1323.0 1113.5 L 1325.0 1116.5 L 1327.0 1119.5 L 1328.5 1123.0 L 1330.5 1126.0 L 1332.5 1129.0 L 1334.5 1132.0 L 1336.0 1135.5 L 1338.0 1138.5 L 1339.5 1142.0 L 1341.5 1145.0 L 1343.5 1148.0 L 1345.0 1151.5 L 1346.5 1155.0 L 1348.5 1158.0 L 1349.5 1162.0 L 1349.5 1167.0 L 1348.5 1171.0 L 1348.5 1176.0 L 1347.5 1180.0 L 1347.5 1185.0 L 1346.5 1189.0 L 1345.5 1193.0 L 1345.5 1198.0 L 1344.5 1202.0 L 1343.5 1206.0 L 1342.5 1210.0 L 1342.0 1214.5 L 1341.5 1219.0 L 1340.5 1223.0 L 1339.5 1227.0 L 1338.5 1231.0 L 1337.5 1235.0 L 1336.5 1239.0 L 1335.5 1243.0 L 1334.5 1247.0 L 1333.5 1251.0 L 1332.5 1255.0 L 1331.0 1258.5 L 1329.5 1262.0 L 1328.5 1266.0 L 1327.5 1270.0 L 1326.5 1274.0 L 1325.0 1277.5 L 1323.5 1281.0 L 1322.5 1285.0 L 1321.5 1289.0 L 1319.5 1292.0 L 1318.5 1296.0 L 1317.0 1299.5 L 1315.5 1303.0 L 1314.5 1307.0 L 1313.0 1310.5 L 1311.5 1314.0 L 1310.0 1317.5 L 1308.5 1321.0 L 1307.0 1324.5 L 1305.5 1328.0 L 1304.0 1331.5 L 1302.5 1335.0 L 1301.0 1338.5 L 1299.5 1342.0 L 1297.5 1345.0 L 1296.5 1349.0 L 1294.5 1352.0 L 1293.0 1355.5 L 1291.5 1359.0 L 1289.5 1362.0 L 1288.0 1365.5 L 1286.5 1369.0 L 1285.5 1373.0 Z"/>
<path fill="#ffffff" d="M 1679.0 1224.5 L 1676.5 1222.0 L 1674.5 1219.0 L 1672.5 1216.0 L 1670.5 1213.0 L 1668.5 1210.0 L 1666.0 1207.5 L 1664.0 1204.5 L 1661.5 1202.0 L 1659.5 1199.0 L 1657.5 1196.0 L 1655.0 1193.5 L 1653.0 1190.5 L 1650.5 1188.0 L 1648.5 1185.0 L 1646.0 1182.5 L 1643.5 1180.0 L 1641.0 1177.5 L 1639.0 1174.5 L 1636.5 1172.0 L 1634.0 1169.5 L 1631.5 1167.0 L 1629.0 1164.5 L 1626.5 1162.0 L 1624.0 1159.5 L 1621.5 1157.0 L 1619.0 1154.5 L 1616.5 1152.0 L 1614.0 1149.5 L 1611.5 1147.0 L 1609.0 1144.5 L 1606.0 1142.5 L 1603.5 1140.0 L 1601.0 1137.5 L 1598.0 1135.5 L 1595.5 1133.0 L 1593.0 1130.5 L 1590.0 1128.5 L 1587.5 1126.0 L 1585.0 1123.5 L 1582.0 1121.5 L 1579.0 1119.5 L 1576.5 1117.0 L 1573.5 1115.0 L 1571.0 1112.5 L 1568.0 1110.5 L 1565.5 1108.0 L 1562.5 1106.0 L 1560.0 1103.5 L 1557.0 1101.5 L 1554.0 1099.5 L 1551.0 1097.5 L 1548.5 1095.0 L 1545.5 1093.0 L 1542.5 1091.0 L 1540.0 1088.5 L 1537.0 1086.5 L 1534.0 1084.5 L 1531.0 1082.5 L 1528.0 1080.5 L 1525.0 1078.5 L 1522.5 1076.0 L 1519.5 1074.0 L 1516.5 1072.0 L 1513.5 1070.0 L 1510.5 1068.0 L 1507.5 1066.0 L 1504.5 1064.0 L 1501.5 1062.0 L 1499.0 1059.5 L 1496.0 1057.5 L 1493.0 1055.5 L 1490.0 1053.5 L 1487.0 1051.5 L 1484.0 1049.5 L 1481.0 1047.5 L 1478.0 1045.5 L 1475.0 1043.5 L 1472.0 1041.5 L 1469.0 1039.5 L 1466.0 1037.5 L 1463.5 1035.0 L 1460.5 1033.0 L 1457.5 1031.0 L 1454.5 1029.0 L 1451.5 1027.0 L 1448.5 1025.0 L 1445.5 1023.0 L 1442.5 1021.0 L 1439.5 1019.0 L 1436.5 1017.0 L 1434.0 1014.5 L 1431.0 1012.5 L 1428.0 1010.5 L 1425.0 1008.5 L 1422.0 1006.5 L 1419.0 1004.5 L 1416.0 1002.5 L 1413.0 1000.5 L 1410.0 998.5 L 1407.0 996.5 L 1404.0 994.5 L 1401.0 992.5 L 1398.0 990.5 L 1395.0 988.5 L 1392.0 986.5 L 1389.0 984.5 L 1386.0 982.5 L 1383.0 980.5 L 1380.0 978.5 L 1377.0 976.5 L 1374.5 974.0 L 1371.5 972.0 L 1368.5 970.0 L 1365.5 968.0 L 1362.5 966.0 L 1359.5 964.0 L 1356.5 962.0 L 1353.5 960.0 L 1350.5 958.0 L 1347.5 956.0 L 1344.5 954.0 L 1341.5 952.0 L 1339.0 949.5 L 1336.0 947.5 L 1333.0 945.5 L 1330.0 943.5 L 1327.0 941.5 L 1324.0 939.5 L 1321.0 937.5 L 1323.5 937.0 L 1328.0 937.5 L 1332.0 938.5 L 1337.0 938.5 L 1341.0 939.5 L 1345.0 940.5 L 1350.0 940.5 L 1354.0 941.5 L 1358.5 942.0 L 1363.0 942.5 L 1367.0 943.5 L 1371.5 944.0 L 1376.0 944.5 L 1380.0 945.5 L 1384.5 946.0 L 1389.0 946.5 L 1393.0 947.5 L 1397.0 948.5 L 1402.0 948.5 L 1406.0 949.5 L 1410.0 950.5 L 1414.5 951.0 L 1419.0 951.5 L 1423.0 952.5 L 1427.0 953.5 L 1431.0 954.5 L 1436.0 954.5 L 1440.0 955.5 L 1444.0 956.5 L 1448.0 957.5 L 1452.5 958.0 L 1457.0 958.5 L 1461.0 959.5 L 1465.0 960.5 L 1469.0 961.5 L 1473.0 962.5 L 1477.0 963.5 L 1481.5 964.0 L 1486.0 964.5 L 1490.0 965.5 L 1494.0 966.5 L 1498.0 967.5 L 1502.0 968.5 L 1506.0 969.5 L 1510.0 970.5 L 1514.0 971.5 L 1518.0 972.5 L 1522.0 973.5 L 1526.0 974.5 L 1530.0 975.5 L 1534.0 976.5 L 1538.0 977.5 L 1542.0 978.5 L 1545.5 980.0 L 1549.5 981.0 L 1553.0 982.5 L 1557.0 983.5 L 1561.0 984.5 L 1564.5 986.0 L 1568.0 987.5 L 1572.0 988.5 L 1575.5 990.0 L 1579.0 991.5 L 1582.5 993.0 L 1586.0 994.5 L 1589.0 996.5 L 1592.5 998.0 L 1595.5 1000.0 L 1598.5 1002.0 L 1601.0 1004.5 L 1604.0 1006.5 L 1606.5 1009.0 L 1609.0 1011.5 L 1611.5 1014.0 L 1614.0 1016.5 L 1616.5 1019.0 L 1619.0 1021.5 L 1621.0 1024.5 L 1623.5 1027.0 L 1625.5 1030.0 L 1628.0 1032.5 L 1630.0 1035.5 L 1632.5 1038.0 L 1634.5 1041.0 L 1636.5 1044.0 L 1638.5 1047.0 L 1640.5 1050.0 L 1642.5 1053.0 L 1644.5 1056.0 L 1646.5 1059.0 L 1648.5 1062.0 L 1650.0 1065.5 L 1652.0 1068.5 L 1653.5 1072.0 L 1655.5 1075.0 L 1657.0 1078.5 L 1658.5 1082.0 L 1660.5 1085.0 L 1662.0 1088.5 L 1663.5 1092.0 L 1665.0 1095.5 L 1666.5 1099.0 L 1667.5 1103.0 L 1669.0 1106.5 L 1670.5 1110.0 L 1671.5 1114.0 L 1672.5 1118.0 L 1673.5 1122.0 L 1675.0 1125.5 L 1676.0 1129.5 L 1677.0 1133.5 L 1677.5 1138.0 L 1678.5 1142.0 L 1679.5 1146.0 L 1680.5 1150.0 L 1680.5 1155.0 L 1681.5 1159.0 L 1681.5 1164.0 L 1682.5 1168.0 L 1682.5 1173.0 L 1682.5 1178.0 L 1682.5 1183.0 L 1682.5 1188.0 L 1682.5 1193.0 L 1682.5 1198.0 L 1681.5 1202.0 L 1681.5 1207.0 L 1681.0 1211.5 L 1680.5 1216.0 L 1679.5 1220.0 L 1679.0 1224.5 Z"/>
<path fill="#ffffff" d="M 1579.0 1966.5 L 1575.0 1965.5 L 1571.5 1964.0 L 1568.0 1962.5 L 1564.0 1961.5 L 1560.0 1960.5 L 1557.0 1958.5 L 1553.0 1957.5 L 1549.5 1956.0 L 1546.0 1954.5 L 1542.0 1953.5 L 1539.0 1951.5 L 1535.0 1950.5 L 1532.0 1948.5 L 1528.0 1947.5 L 1525.0 1945.5 L 1521.5 1944.0 L 1518.0 1942.5 L 1514.5 1941.0 L 1511.0 1939.5 L 1508.0 1937.5 L 1504.5 1936.0 L 1501.0 1934.5 L 1498.0 1932.5 L 1495.0 1930.5 L 1491.5 1929.0 L 1488.0 1927.5 L 1485.0 1925.5 L 1482.0 1923.5 L 1479.0 1921.5 L 1475.5 1920.0 L 1472.5 1918.0 L 1469.5 1916.0 L 1466.5 1914.0 L 1463.5 1912.0 L 1460.5 1910.0 L 1457.5 1908.0 L 1454.5 1906.0 L 1451.5 1904.0 L 1448.5 1902.0 L 1446.0 1899.5 L 1443.0 1897.5 L 1440.0 1895.5 L 1437.5 1893.0 L 1434.5 1891.0 L 1432.0 1888.5 L 1429.0 1886.5 L 1426.5 1884.0 L 1424.0 1881.5 L 1421.0 1879.5 L 1418.5 1877.0 L 1416.0 1874.5 L 1413.5 1872.0 L 1411.0 1869.5 L 1408.5 1867.0 L 1406.0 1864.5 L 1403.5 1862.0 L 1401.5 1859.0 L 1399.0 1856.5 L 1396.5 1854.0 L 1394.5 1851.0 L 1392.0 1848.5 L 1390.0 1845.5 L 1388.0 1842.5 L 1385.5 1840.0 L 1383.5 1837.0 L 1381.5 1834.0 L 1379.5 1831.0 L 1377.5 1828.0 L 1376.0 1824.5 L 1374.0 1821.5 L 1372.5 1818.0 L 1370.5 1815.0 L 1368.5 1812.0 L 1367.0 1808.5 L 1365.5 1805.0 L 1364.0 1801.5 L 1362.5 1798.0 L 1361.0 1794.5 L 1359.5 1791.0 L 1358.0 1787.5 L 1356.5 1784.0 L 1355.5 1780.0 L 1354.0 1776.5 L 1352.5 1773.0 L 1351.5 1769.0 L 1350.0 1765.5 L 1348.5 1762.0 L 1347.5 1758.0 L 1346.0 1754.5 L 1344.5 1751.0 L 1343.5 1747.0 L 1342.5 1743.0 L 1341.5 1739.0 L 1340.0 1735.5 L 1338.5 1732.0 L 1337.5 1728.0 L 1336.5 1724.0 L 1335.5 1720.0 L 1334.5 1716.0 L 1333.5 1712.0 L 1332.5 1708.0 L 1331.5 1704.0 L 1330.5 1700.0 L 1329.5 1696.0 L 1328.5 1692.0 L 1327.5 1688.0 L 1326.5 1684.0 L 1325.5 1680.0 L 1324.5 1676.0 L 1324.0 1671.5 L 1323.5 1667.0 L 1322.5 1663.0 L 1321.5 1659.0 L 1320.5 1655.0 L 1320.0 1650.5 L 1319.5 1646.0 L 1318.5 1642.0 L 1317.5 1638.0 L 1317.5 1633.0 L 1316.5 1629.0 L 1316.0 1624.5 L 1315.5 1620.0 L 1314.5 1616.0 L 1314.5 1611.0 L 1313.5 1607.0 L 1313.5 1602.0 L 1312.5 1598.0 L 1312.5 1593.0 L 1311.5 1589.0 L 1311.5 1584.0 L 1310.5 1580.0 L 1310.5 1575.0 L 1310.5 1570.0 L 1309.5 1566.0 L 1309.5 1561.0 L 1309.5 1556.0 L 1309.5 1551.0 L 1308.5 1547.0 L 1308.5 1542.0 L 1308.5 1537.0 L 1308.5 1532.0 L 1308.5 1527.0 L 1308.5 1522.0 L 1308.5 1517.0 L 1308.5 1512.0 L 1308.5 1507.0 L 1308.5 1502.0 L 1308.5 1497.0 L 1308.5 1492.0 L 1308.5 1487.0 L 1309.0 1482.5 L 1311.0 1479.5 L 1312.5 1476.0 L 1313.5 1472.0 L 1314.5 1468.0 L 1315.5 1464.0 L 1316.5 1460.0 L 1317.5 1456.0 L 1318.5 1452.0 L 1319.5 1448.0 L 1320.5 1444.0 L 1321.5 1440.0 L 1322.5 1436.0 L 1323.5 1432.0 L 1324.0 1427.5 L 1325.0 1423.5 L 1326.0 1419.5 L 1327.0 1415.5 L 1327.5 1411.0 L 1328.5 1407.0 L 1329.5 1403.0 L 1332.0 1400.5 L 1335.0 1398.5 L 1338.5 1397.0 L 1342.0 1395.5 L 1345.0 1393.5 L 1348.5 1392.0 L 1352.0 1390.5 L 1355.0 1388.5 L 1358.5 1387.0 L 1362.0 1385.5 L 1365.0 1383.5 L 1369.0 1382.5 L 1372.0 1380.5 L 1376.0 1379.5 L 1379.0 1377.5 L 1383.0 1376.5 L 1386.0 1374.5 L 1390.0 1373.5 L 1393.5 1372.0 L 1397.0 1370.5 L 1401.0 1369.5 L 1404.5 1368.0 L 1408.0 1366.5 L 1412.0 1365.5 L 1416.0 1364.5 L 1419.5 1363.0 L 1423.0 1361.5 L 1427.0 1360.5 L 1431.0 1359.5 L 1435.0 1358.5 L 1438.5 1357.0 L 1442.5 1356.0 L 1446.0 1354.5 L 1450.0 1353.5 L 1454.0 1352.5 L 1458.0 1351.5 L 1462.0 1350.5 L 1466.0 1349.5 L 1470.0 1348.5 L 1474.0 1347.5 L 1478.0 1346.5 L 1482.5 1346.0 L 1486.5 1345.0 L 1491.0 1344.5 L 1495.0 1343.5 L 1499.0 1342.5 L 1503.0 1341.5 L 1508.0 1341.5 L 1512.0 1340.5 L 1516.0 1339.5 L 1521.0 1339.5 L 1525.0 1338.5 L 1529.0 1337.5 L 1534.0 1337.5 L 1538.0 1336.5 L 1543.0 1336.5 L 1547.0 1335.5 L 1551.5 1335.0 L 1556.0 1334.5 L 1560.5 1334.0 L 1565.0 1333.5 L 1570.0 1333.5 L 1574.0 1332.5 L 1579.0 1332.5 L 1583.0 1331.5 L 1588.0 1331.5 L 1592.5 1331.0 L 1596.0 1331.5 L 1598.5 1334.0 L 1600.5 1337.0 L 1602.5 1340.0 L 1604.5 1343.0 L 1606.5 1346.0 L 1608.5 1349.0 L 1610.5 1352.0 L 1612.0 1355.5 L 1614.0 1358.5 L 1615.5 1362.0 L 1617.5 1365.0 L 1619.0 1368.5 L 1620.5 1372.0 L 1622.0 1375.5 L 1623.5 1379.0 L 1625.0 1382.5 L 1626.5 1386.0 L 1628.0 1389.5 L 1629.5 1393.0 L 1630.5 1397.0 L 1632.0 1400.5 L 1633.5 1404.0 L 1634.5 1408.0 L 1635.5 1412.0 L 1636.5 1416.0 L 1638.0 1419.5 L 1639.0 1423.5 L 1640.5 1427.0 L 1641.5 1431.0 L 1642.5 1435.0 L 1643.5 1439.0 L 1644.5 1443.0 L 1645.0 1447.5 L 1646.0 1451.5 L 1646.5 1456.0 L 1647.5 1460.0 L 1648.5 1464.0 L 1649.5 1468.0 L 1650.0 1472.5 L 1650.5 1477.0 L 1651.5 1481.0 L 1652.0 1485.5 L 1652.5 1490.0 L 1653.5 1494.0 L 1653.5 1499.0 L 1654.5 1503.0 L 1654.5 1508.0 L 1655.5 1512.0 L 1655.5 1517.0 L 1656.5 1521.0 L 1656.5 1526.0 L 1657.5 1530.0 L 1657.5 1535.0 L 1657.5 1540.0 L 1658.0 1544.5 L 1658.5 1549.0 L 1658.5 1554.0 L 1658.5 1559.0 L 1658.5 1564.0 L 1659.5 1568.0 L 1659.5 1573.0 L 1659.5 1578.0 L 1659.5 1583.0 L 1659.5 1588.0 L 1659.5 1593.0 L 1659.5 1598.0 L 1659.5 1603.0 L 1659.5 1608.0 L 1659.5 1613.0 L 1658.5 1617.0 L 1658.5 1622.0 L 1658.5 1627.0 L 1658.5 1632.0 L 1658.5 1637.0 L 1657.5 1641.0 L 1657.5 1646.0 L 1657.5 1651.0 L 1657.0 1655.5 L 1656.5 1660.0 L 1656.5 1665.0 L 1655.5 1669.0 L 1655.5 1674.0 L 1655.0 1678.5 L 1654.5 1683.0 L 1654.5 1688.0 L 1653.5 1692.0 L 1653.0 1696.5 L 1652.5 1701.0 L 1651.5 1705.0 L 1651.5 1710.0 L 1650.5 1714.0 L 1650.5 1719.0 L 1649.5 1723.0 L 1648.5 1727.0 L 1648.5 1732.0 L 1647.5 1736.0 L 1646.5 1740.0 L 1646.5 1745.0 L 1645.5 1749.0 L 1644.5 1753.0 L 1643.5 1757.0 L 1643.0 1761.5 L 1642.5 1766.0 L 1641.5 1770.0 L 1640.5 1774.0 L 1639.5 1778.0 L 1638.5 1782.0 L 1638.0 1786.5 L 1637.5 1791.0 L 1636.5 1795.0 L 1635.5 1799.0 L 1634.5 1803.0 L 1633.5 1807.0 L 1632.5 1811.0 L 1631.5 1815.0 L 1630.5 1819.0 L 1629.5 1823.0 L 1628.5 1827.0 L 1627.5 1831.0 L 1626.5 1835.0 L 1625.5 1839.0 L 1624.0 1842.5 L 1623.0 1846.5 L 1621.5 1850.0 L 1620.5 1854.0 L 1619.5 1858.0 L 1618.5 1862.0 L 1617.5 1866.0 L 1616.0 1869.5 L 1614.5 1873.0 L 1613.5 1877.0 L 1612.5 1881.0 L 1611.5 1885.0 L 1610.0 1888.5 L 1608.5 1892.0 L 1607.5 1896.0 L 1606.0 1899.5 L 1604.5 1903.0 L 1603.5 1907.0 L 1602.0 1910.5 L 1600.5 1914.0 L 1599.5 1918.0 L 1598.0 1921.5 L 1596.5 1925.0 L 1595.5 1929.0 L 1593.5 1932.0 L 1592.5 1936.0 L 1590.5 1939.0 L 1589.5 1943.0 L 1588.0 1946.5 L 1586.5 1950.0 L 1585.0 1953.5 L 1583.5 1957.0 L 1582.0 1960.5 L 1580.5 1964.0 Z"/>
<path fill="#ffffff" d="M 1308.0 1393.5 L 1305.0 1391.5 L 1302.0 1389.5 L 1299.5 1387.0 L 1302.5 1385.0 L 1305.5 1383.0 L 1309.0 1381.5 L 1312.0 1379.5 L 1315.0 1377.5 L 1318.0 1375.5 L 1321.0 1373.5 L 1324.0 1371.5 L 1327.5 1370.0 L 1330.5 1368.0 L 1333.5 1366.0 L 1337.0 1364.5 L 1340.0 1362.5 L 1343.0 1360.5 L 1346.0 1358.5 L 1349.0 1356.5 L 1352.5 1355.0 L 1355.5 1353.0 L 1359.0 1351.5 L 1362.0 1349.5 L 1365.0 1347.5 L 1368.5 1346.0 L 1371.5 1344.0 L 1375.0 1342.5 L 1378.0 1340.5 L 1381.5 1339.0 L 1384.5 1337.0 L 1388.0 1335.5 L 1391.0 1333.5 L 1394.5 1332.0 L 1396.5 1334.0 L 1396.5 1339.0 L 1396.5 1344.0 L 1394.0 1346.5 L 1390.5 1348.0 L 1387.0 1349.5 L 1383.0 1350.5 L 1380.0 1352.5 L 1376.0 1353.5 L 1372.5 1355.0 L 1369.0 1356.5 L 1365.5 1358.0 L 1362.0 1359.5 L 1358.5 1361.0 L 1355.0 1362.5 L 1352.0 1364.5 L 1348.0 1365.5 L 1345.0 1367.5 L 1341.5 1369.0 L 1338.0 1370.5 L 1335.0 1372.5 L 1331.5 1374.0 L 1328.0 1375.5 L 1325.0 1377.5 L 1322.0 1379.5 L 1318.5 1381.0 L 1315.0 1382.5 L 1312.5 1385.0 L 1310.0 1387.5 L 1308.5 1391.0 Z"/>
<path fill="#ffffff" d="M 1597.0 1968.5 L 1594.0 1967.5 L 1595.5 1964.0 L 1597.5 1961.0 L 1599.0 1957.5 L 1600.5 1954.0 L 1602.5 1951.0 L 1604.0 1947.5 L 1605.5 1944.0 L 1607.5 1941.0 L 1609.0 1937.5 L 1610.5 1934.0 L 1612.5 1931.0 L 1613.5 1927.0 L 1615.5 1924.0 L 1617.0 1920.5 L 1618.5 1917.0 L 1620.5 1914.0 L 1622.0 1910.5 L 1623.5 1907.0 L 1625.0 1903.5 L 1626.5 1900.0 L 1628.5 1897.0 L 1630.0 1893.5 L 1631.5 1890.0 L 1633.0 1886.5 L 1634.5 1883.0 L 1636.5 1880.0 L 1637.5 1876.0 L 1639.5 1873.0 L 1641.0 1869.5 L 1642.5 1866.0 L 1644.0 1862.5 L 1645.5 1859.0 L 1647.5 1856.0 L 1648.5 1852.0 L 1650.5 1849.0 L 1651.5 1845.0 L 1653.5 1842.0 L 1655.0 1838.5 L 1656.5 1835.0 L 1658.0 1831.5 L 1659.5 1828.0 L 1661.0 1824.5 L 1662.5 1821.0 L 1664.0 1817.5 L 1665.5 1814.0 L 1667.0 1810.5 L 1668.5 1807.0 L 1670.0 1803.5 L 1671.5 1800.0 L 1672.5 1796.0 L 1674.5 1793.0 L 1675.5 1789.0 L 1677.5 1786.0 L 1678.5 1782.0 L 1680.0 1778.5 L 1681.5 1775.0 L 1683.0 1771.5 L 1684.5 1768.0 L 1685.5 1764.0 L 1687.5 1761.0 L 1688.5 1757.0 L 1690.0 1753.5 L 1691.5 1750.0 L 1692.5 1746.0 L 1694.5 1743.0 L 1695.5 1739.0 L 1697.0 1735.5 L 1698.5 1732.0 L 1699.5 1728.0 L 1701.0 1724.5 L 1702.5 1721.0 L 1703.5 1717.0 L 1705.0 1713.5 L 1706.5 1710.0 L 1707.5 1706.0 L 1709.0 1702.5 L 1710.5 1699.0 L 1711.5 1695.0 L 1712.5 1691.0 L 1714.0 1687.5 L 1715.5 1684.0 L 1716.5 1680.0 L 1717.5 1676.0 L 1719.0 1672.5 L 1720.5 1669.0 L 1721.5 1665.0 L 1722.5 1661.0 L 1724.0 1657.5 L 1725.0 1653.5 L 1726.5 1650.0 L 1727.5 1646.0 L 1728.5 1642.0 L 1729.5 1638.0 L 1731.0 1634.5 L 1732.0 1630.5 L 1733.5 1627.0 L 1734.5 1623.0 L 1735.5 1619.0 L 1736.5 1615.0 L 1737.5 1611.0 L 1738.5 1607.0 L 1739.5 1603.0 L 1740.5 1599.0 L 1741.5 1595.0 L 1742.5 1591.0 L 1743.5 1587.0 L 1744.5 1583.0 L 1745.5 1579.0 L 1746.5 1575.0 L 1747.5 1571.0 L 1748.5 1567.0 L 1749.5 1563.0 L 1750.0 1558.5 L 1751.0 1554.5 L 1751.5 1550.0 L 1752.5 1546.0 L 1753.5 1542.0 L 1754.5 1538.0 L 1754.5 1533.0 L 1755.5 1529.0 L 1756.5 1525.0 L 1757.0 1520.5 L 1757.5 1516.0 L 1758.5 1512.0 L 1758.5 1507.0 L 1759.5 1503.0 L 1759.5 1498.0 L 1760.5 1494.0 L 1760.5 1489.0 L 1761.5 1485.0 L 1761.5 1480.0 L 1762.0 1475.5 L 1762.5 1471.0 L 1762.5 1466.0 L 1762.5 1461.0 L 1762.5 1456.0 L 1763.5 1452.0 L 1763.5 1447.0 L 1763.5 1442.0 L 1762.5 1438.0 L 1762.5 1433.0 L 1762.5 1428.0 L 1762.5 1423.0 L 1761.5 1419.0 L 1761.5 1414.0 L 1761.0 1409.5 L 1760.5 1405.0 L 1759.5 1401.0 L 1759.0 1396.5 L 1758.5 1392.0 L 1757.5 1388.0 L 1756.5 1384.0 L 1755.5 1380.0 L 1754.5 1376.0 L 1753.5 1372.0 L 1752.0 1368.5 L 1750.5 1365.0 L 1749.5 1361.0 L 1747.5 1358.0 L 1746.5 1354.0 L 1744.5 1351.0 L 1742.5 1348.0 L 1741.0 1344.5 L 1739.0 1341.5 L 1739.0 1339.5 L 1742.0 1341.5 L 1746.0 1342.5 L 1749.0 1344.5 L 1752.5 1346.0 L 1756.0 1347.5 L 1759.0 1349.5 L 1762.5 1351.0 L 1766.0 1352.5 L 1769.0 1354.5 L 1772.5 1356.0 L 1775.5 1358.0 L 1779.0 1359.5 L 1782.0 1361.5 L 1785.5 1363.0 L 1788.5 1365.0 L 1792.0 1366.5 L 1795.0 1368.5 L 1798.0 1370.5 L 1801.5 1372.0 L 1804.5 1374.0 L 1808.0 1375.5 L 1811.0 1377.5 L 1814.0 1379.5 L 1817.0 1381.5 L 1820.5 1383.0 L 1823.5 1385.0 L 1826.5 1387.0 L 1830.0 1388.5 L 1833.0 1390.5 L 1836.0 1392.5 L 1839.0 1394.5 L 1841.5 1397.0 L 1843.0 1400.5 L 1844.5 1404.0 L 1845.5 1408.0 L 1846.5 1412.0 L 1847.5 1416.0 L 1848.5 1420.0 L 1849.5 1424.0 L 1850.5 1428.0 L 1851.0 1432.5 L 1851.5 1437.0 L 1852.5 1441.0 L 1853.5 1445.0 L 1854.5 1449.0 L 1855.5 1453.0 L 1855.5 1458.0 L 1856.5 1462.0 L 1857.5 1466.0 L 1858.5 1470.0 L 1858.5 1475.0 L 1859.5 1479.0 L 1860.5 1483.0 L 1860.5 1488.0 L 1861.5 1492.0 L 1861.5 1497.0 L 1862.5 1501.0 L 1863.0 1505.5 L 1863.5 1510.0 L 1864.0 1514.5 L 1864.5 1519.0 L 1865.0 1523.5 L 1865.5 1528.0 L 1865.5 1533.0 L 1866.5 1537.0 L 1866.5 1542.0 L 1866.5 1547.0 L 1867.5 1551.0 L 1867.5 1556.0 L 1867.5 1561.0 L 1867.5 1566.0 L 1868.5 1570.0 L 1868.5 1575.0 L 1868.5 1580.0 L 1868.5 1585.0 L 1868.5 1590.0 L 1868.5 1595.0 L 1868.5 1600.0 L 1868.5 1605.0 L 1868.5 1610.0 L 1868.5 1615.0 L 1868.5 1620.0 L 1868.5 1625.0 L 1867.5 1629.0 L 1867.5 1634.0 L 1866.5 1638.0 L 1866.0 1642.5 L 1865.5 1647.0 L 1864.5 1651.0 L 1864.5 1656.0 L 1863.5 1660.0 L 1863.0 1664.5 L 1862.5 1669.0 L 1861.5 1673.0 L 1861.0 1677.5 L 1860.5 1682.0 L 1859.5 1686.0 L 1859.0 1690.5 L 1858.5 1695.0 L 1857.5 1699.0 L 1856.5 1703.0 L 1856.5 1708.0 L 1855.5 1712.0 L 1854.5 1716.0 L 1853.5 1720.0 L 1853.0 1724.5 L 1852.5 1729.0 L 1851.5 1733.0 L 1850.5 1737.0 L 1849.5 1741.0 L 1848.5 1745.0 L 1847.5 1749.0 L 1846.5 1753.0 L 1845.5 1757.0 L 1844.5 1761.0 L 1843.5 1765.0 L 1842.5 1769.0 L 1841.0 1772.5 L 1839.5 1776.0 L 1838.5 1780.0 L 1837.0 1783.5 L 1835.5 1787.0 L 1834.0 1790.5 L 1832.5 1794.0 L 1831.0 1797.5 L 1829.5 1801.0 L 1827.5 1804.0 L 1826.0 1807.5 L 1824.5 1811.0 L 1822.5 1814.0 L 1820.5 1817.0 L 1819.0 1820.5 L 1817.0 1823.5 L 1815.0 1826.5 L 1813.0 1829.5 L 1811.0 1832.5 L 1809.0 1835.5 L 1807.0 1838.5 L 1805.0 1841.5 L 1803.0 1844.5 L 1801.0 1847.5 L 1798.5 1850.0 L 1796.5 1853.0 L 1794.5 1856.0 L 1792.5 1859.0 L 1790.0 1861.5 L 1788.0 1864.5 L 1785.5 1867.0 L 1783.5 1870.0 L 1781.5 1873.0 L 1779.0 1875.5 L 1776.5 1878.0 L 1774.5 1881.0 L 1772.0 1883.5 L 1769.5 1886.0 L 1767.0 1888.5 L 1764.5 1891.0 L 1762.0 1893.5 L 1759.5 1896.0 L 1757.0 1898.5 L 1754.5 1901.0 L 1752.0 1903.5 L 1749.0 1905.5 L 1746.5 1908.0 L 1743.5 1910.0 L 1741.0 1912.5 L 1738.0 1914.5 L 1735.0 1916.5 L 1732.5 1919.0 L 1729.5 1921.0 L 1726.5 1923.0 L 1723.5 1925.0 L 1720.5 1927.0 L 1717.5 1929.0 L 1714.0 1930.5 L 1711.0 1932.5 L 1708.0 1934.5 L 1705.0 1936.5 L 1701.5 1938.0 L 1698.0 1939.5 L 1695.0 1941.5 L 1691.5 1943.0 L 1688.0 1944.5 L 1684.5 1946.0 L 1681.0 1947.5 L 1677.5 1949.0 L 1674.0 1950.5 L 1670.5 1952.0 L 1667.0 1953.5 L 1663.0 1954.5 L 1659.0 1955.5 L 1655.5 1957.0 L 1652.0 1958.5 L 1648.0 1959.5 L 1644.0 1960.5 L 1640.0 1961.5 L 1636.0 1962.5 L 1632.0 1963.5 L 1627.5 1964.0 L 1623.0 1964.5 L 1619.0 1965.5 L 1615.0 1966.5 L 1610.0 1966.5 L 1606.0 1967.5 L 1601.0 1967.5 L 1597.0 1968.5 Z"/>
<g transform="translate(0.000000,2442.000000) scale(0.100000,-0.100000)"
fill="#223161" stroke="none">
<path d="M8129 22167 c-97 -28 -175 -91 -221 -180 -49 -95 -44 -133 111 -951
80 -407 140 -740 138 -741 -1 -1 -78 4 -172 11 -372 27 -591 35 -1070 41 -371
4 -510 3 -536 -6 -98 -32 -110 -110 -35 -232 542 -888 367 -2163 -491 -3577
-69 -115 -75 -141 -40 -193 36 -54 73 -61 197 -38 890 166 1790 192 2690 78
85 -10 166 -21 180 -24 25 -6 27 -11 103 -417 43 -226 76 -412 75 -413 -2 -1
-64 8 -138 22 -860 153 -2950 444 -3062 427 -41 -7 -83 -47 -94 -89 -13 -52
12 -88 134 -191 949 -804 1534 -1902 1691 -3174 190 -1535 -268 -3476 -1254
-5321 -101 -189 -106 -206 -75 -257 54 -88 102 -79 319 61 1107 713 2127 1260
2991 1607 207 83 737 266 746 257 2 -2 37 -179 78 -392 l73 -387 -36 -25 c-20
-14 -292 -195 -606 -402 -313 -208 -623 -415 -688 -460 -73 -50 -119 -76 -122
-68 -2 6 -43 156 -90 332 -61 227 -92 327 -107 343 -25 26 -75 42 -111 35 -67
-13 -1109 -874 -1294 -1070 -35 -36 -43 -52 -43 -82 0 -79 170 -1224 185
-1248 29 -44 53 -51 200 -56 442 -17 682 -264 776 -802 28 -159 33 -510 10
-718 -13 -123 -13 -129 6 -155 22 -31 96 -71 131 -72 43 0 402 81 762 172 604
153 655 166 822 203 990 223 1997 352 3088 396 324 13 1383 7 1655 -10 697
-43 1233 -96 1798 -177 l178 -26 37 25 c155 103 481 393 646 575 732 806 1130
1772 1248 3027 18 190 18 1019 0 1210 -64 682 -220 1484 -306 1571 -64 64
-636 391 -972 556 l-202 99 234 322 c272 374 255 326 184 536 -56 165 -60 205
-28 247 73 97 461 510 1258 1339 590 614 530 547 530 595 0 123 -101 181 -196
112 -32 -24 -1622 -1512 -2218 -2076 l-148 -140 8 89 c71 738 -160 1453 -656
2030 -291 338 -542 459 -1340 645 -122 28 -207 53 -212 61 -7 13 -78 383 -78
406 0 24 397 -115 640 -224 143 -65 349 -172 423 -221 102 -67 174 -25 261
151 83 166 100 254 100 517 2 455 -171 964 -460 1356 -212 289 -628 488 -1261
604 -68 13 -123 26 -123 29 0 52 -193 1008 -210 1040 -129 253 -494 250 -615
-5 -46 -98 -44 -128 39 -564 41 -217 74 -396 72 -397 -1 -1 -154 2 -340 8
-373 13 -396 10 -440 -42 -34 -40 -33 -85 3 -157 228 -452 142 -1088 -235
-1743 -58 -100 -60 -145 -9 -196 41 -41 36 -41 320 -4 362 48 1062 45 1104 -6
10 -11 84 -413 78 -419 -3 -3 -90 8 -194 25 -517 83 -1166 171 -1206 164 -44
-9 -97 -64 -97 -102 0 -49 19 -77 132 -192 449 -458 706 -1033 754 -1684 l6
-90 -71 114 c-300 478 -724 965 -1019 1169 -378 262 -1239 537 -2522 804
l-115 24 -72 380 c-39 208 -74 394 -78 412 -7 39 -37 43 250 -35 719 -195
1479 -519 2036 -868 186 -117 216 -117 306 3 515 683 487 1793 -77 3013 -331
716 -629 1060 -1160 1337 -492 257 -1359 502 -2048 578 -34 4 -65 10 -67 14
-3 5 -77 390 -165 857 -88 466 -167 867 -176 891 -55 147 -250 243 -405 199z
m-554 -2067 c1528 -76 2702 -325 3392 -720 409 -235 637 -502 923 -1085 508
-1034 613 -2057 275 -2680 -74 -135 -55 -138 -187 31 -376 486 -881 994 -1549
1560 -639 542 -2688 2175 -3444 2744 l-230 173 310 -7 c171 -4 400 -11 510
-16z m6025 -2625 c773 -36 1502 -220 1801 -454 280 -220 570 -928 557 -1359
l-3 -93 -45 63 c-58 81 -315 340 -445 447 -331 275 -733 554 -1677 1165 -203
131 -368 239 -368 242 0 2 12 2 28 -1 15 -2 83 -7 152 -10z m-6638 -1865
c2810 -380 4695 -818 5317 -1235 342 -230 860 -872 1151 -1429 81 -154 81
-150 49 -374 -80 -573 -252 -1105 -587 -1810 l-39 -83 -175 153 c-356 311
-687 577 -1533 1229 -1228 947 -1336 1033 -2590 2079 -1109 925 -1485 1221
-1854 1462 -89 58 -105 58 261 8z m6511 -596 c1193 -175 2049 -373 2412 -557
313 -158 706 -729 853 -1237 89 -305 118 -708 71 -989 -14 -86 -3 -92 -108 58
-196 281 -520 615 -887 917 -334 274 -547 425 -2243 1588 -206 141 -367 256
-357 256 9 0 125 -16 259 -36z m3065 -3273 c10 -6 -41 -60 -188 -197 l-201
-189 -217 -17 c-119 -9 -254 -20 -299 -25 -71 -8 -84 -7 -87 6 -10 33 -56 289
-56 309 0 22 15 27 185 56 286 49 820 84 863 57z m-1712 -308 c3 -21 15 -80
25 -132 11 -52 18 -95 17 -97 -2 -1 -48 -12 -103 -24 -132 -28 -316 -74 -441
-111 -56 -16 -104 -29 -108 -29 -5 0 -11 33 -21 117 l-6 52 58 30 c135 67 527
228 565 230 4 1 10 -16 14 -36z m-856 -400 l0 -78 -162 -63 c-413 -162 -718
-328 -718 -392 0 -34 -16 -30 -60 15 -33 33 -39 45 -27 45 10 0 87 42 170 94
204 125 420 251 580 338 73 39 150 82 172 95 22 12 41 23 43 23 1 0 2 -35 2
-77z m2038 16 c685 -963 788 -3114 243 -5044 -122 -430 -397 -1192 -451 -1249
-11 -11 -197 53 -407 140 -701 291 -1258 710 -1576 1187 -309 462 -600 1471
-691 2397 -45 447 -54 1068 -18 1131 17 27 95 341 186 743 l11 50 110 58 c643
339 1401 540 2400 637 157 15 145 18 193 -50z m1657 -163 c201 -103 568 -310
706 -399 l56 -36 33 -123 c207 -778 286 -1837 187 -2498 -178 -1182 -287
-1468 -805 -2114 -393 -490 -933 -816 -1557 -941 -103 -21 -282 -45 -329 -45
-11 0 2 36 48 132 35 73 125 259 199 413 731 1519 1212 2899 1367 3921 121
795 57 1458 -172 1792 l-30 43 39 -16 c21 -9 137 -67 258 -129z m-5511 -1678
c-193 -136 -1057 -708 -1063 -703 -6 6 -110 538 -106 543 14 17 700 139 965
171 91 12 179 22 195 24 66 8 67 6 9 -35z"/>
<path d="M9030 7938 c1 -31 140 -433 149 -431 13 3 641 433 641 439 0 2 -178
4 -395 4 -309 0 -395 -3 -395 -12z"/>
</g>
</svg>
