<?xml version="1.0" standalone="no"?>
<!DOCTYPE svg PUBLIC "-//W3C//DTD SVG 20010904//EN"
 "http://www.w3.org/TR/2001/REC-SVG-20010904/DTD/svg10.dtd">
<svg version="1.0" xmlns="http://www.w3.org/2000/svg"
 width="2442.000000pt" height="2442.000000pt" viewBox="0 0 2442.000000 2442.000000"
 preserveAspectRatio="xMidYMid meet">
<metadata>
Created by potrace 1.16, written by Peter Selinger 2001-2019
</metadata>
<g transform="translate(0.000000,2442.000000) scale(0.100000,-0.100000)"
fill="#ffffff" stroke="none">
<path d="M8129 22167 c-97 -28 -175 -91 -221 -180 -49 -95 -44 -133 111 -951
77 -407 140 -740 138 -741 -1 -1 -78 4 -172 11 -372 27 -591 35 -1070 41 -371
4 -510 3 -536 -6 -98 -32 -110 -110 -35 -232 542 -888 367 -2163 -491 -3577
-69 -115 -75 -141 -40 -193 36 -54 73 -61 197 -38 890 166 1790 192 2690 78
85 -10 166 -21 180 -24 25 -6 27 -11 103 -417 43 -226 76 -412 75 -413 -2 -1
-64 8 -138 22 -860 153 -2950 444 -3062 427 -41 -7 -83 -47 -94 -89 -13 -52
12 -88 134 -191 949 -804 1534 -1902 1691 -3174 190 -1535 -268 -3476 -1254
-5321 -101 -189 -106 -206 -75 -257 54 -88 102 -79 319 61 1107 713 2127 1260
2991 1607 207 83 737 266 746 257 2 -2 37 -179 78 -392 l73 -387 -36 -25 c-20
-14 -292 -195 -606 -402 -313 -208 -623 -415 -688 -460 -73 -50 -119 -76 -122
-68 -2 6 -43 156 -90 332 -61 227 -92 327 -107 343 -25 26 -75 42 -111 35 -67
-13 -1109 -874 -1294 -1070 -35 -36 -43 -52 -43 -82 0 -79 170 -1224 185
-1248 29 -44 53 -51 200 -56 442 -17 682 -264 776 -802 28 -159 33 -510 10
-718 -13 -123 -13 -129 6 -155 22 -31 96 -71 131 -72 43 0 402 81 762 172 604
153 655 166 822 203 990 223 1997 352 3088 396 324 13 1383 7 1655 -10 697
-43 1233 -96 1798 -177 l178 -26 37 25 c155 103 481 393 646 575 732 806 1130
1772 1248 3027 18 190 18 1019 0 1210 -64 682 -220 1484 -306 1571 -64 64
-636 391 -972 556 l-202 99 234 322 c272 374 255 326 184 536 -56 165 -60 205
-28 247 73 97 461 510 1258 1339 590 614 530 547 530 595 0 123 -101 181 -196
112 -32 -24 -1622 -1512 -2218 -2076 l-148 -140 8 89 c71 738 -160 1453 -656
2030 -291 338 -542 459 -1340 645 -122 28 -207 53 -212 61 -7 13 -78 383 -78
406 0 24 397 -115 640 -224 143 -65 349 -172 423 -221 102 -67 174 -25 261
151 83 166 100 254 100 517 2 455 -171 964 -460 1356 -212 289 -628 488 -1261
604 -68 13 -123 26 -123 29 0 52 -193 1008 -210 1040 -129 253 -494 250 -615
-5 -46 -98 -44 -128 39 -564 41 -217 74 -396 72 -397 -1 -1 -154 2 -340 8
-373 13 -396 10 -440 -42 -34 -40 -33 -85 3 -157 228 -452 142 -1088 -235
-1743 -58 -100 -60 -145 -9 -196 41 -41 36 -41 320 -4 362 48 1062 45 1104 -6
10 -11 84 -413 78 -419 -3 -3 -90 8 -194 25 -517 83 -1166 171 -1206 164 -44
-9 -97 -64 -97 -102 0 -49 19 -77 132 -192 449 -458 706 -1033 754 -1684 l6
-90 -71 114 c-300 478 -724 965 -1019 1169 -378 262 -1239 537 -2522 804
l-115 24 -72 380 c-39 208 -74 394 -78 412 -7 39 -37 43 250 -35 719 -195
1479 -519 2036 -868 186 -117 216 -117 306 3 515 683 487 1793 -77 3013 -331
716 -629 1060 -1160 1337 -492 257 -1359 502 -2048 578 -34 4 -65 10 -67 14
-3 5 -77 390 -165 857 -88 466 -167 867 -176 891 -55 147 -250 243 -405 199z
m-554 -2067 c1528 -76 2702 -325 3392 -720 409 -235 637 -502 923 -1085 508
-1034 613 -2057 275 -2680 -74 -135 -55 -138 -187 31 -376 486 -881 994 -1549
1560 -639 542 -2688 2175 -3444 2744 l-230 173 310 -7 c171 -4 400 -11 510
-16z m6025 -2625 c773 -36 1502 -220 1801 -454 280 -220 570 -928 557 -1359
l-3 -93 -45 63 c-58 81 -315 340 -445 447 -331 275 -733 554 -1677 1165 -203
131 -368 239 -368 242 0 2 12 2 28 -1 15 -2 83 -7 152 -10z m-6638 -1865
c2810 -380 4695 -818 5317 -1235 342 -230 860 -872 1151 -1429 81 -154 81
-150 49 -374 -80 -573 -252 -1105 -587 -1810 l-39 -83 -175 153 c-356 311
-687 577 -1533 1229 -1228 947 -1336 1033 -2590 2079 -1109 925 -1485 1221
-1854 1462 -89 58 -105 58 261 8z m6511 -596 c1193 -175 2049 -373 2412 -557
313 -158 706 -729 853 -1237 89 -305 118 -708 71 -989 -14 -86 -3 -92 -108 58
-196 281 -520 615 -887 917 -334 274 -547 425 -2243 1588 -206 141 -367 256
-357 256 9 0 125 -16 259 -36z m3065 -3273 c10 -6 -41 -60 -188 -197 l-201
-189 -217 -17 c-119 -9 -254 -20 -299 -25 -71 -8 -84 -7 -87 6 -10 33 -56 289
-56 309 0 22 15 27 185 56 286 49 820 84 863 57z m-1712 -308 c3 -21 15 -80
25 -132 11 -52 18 -95 17 -97 -2 -1 -48 -12 -103 -24 -132 -28 -316 -74 -441
-111 -56 -16 -104 -29 -108 -29 -5 0 -11 33 -21 117 l-6 52 58 30 c135 67 527
228 565 230 4 1 10 -16 14 -36z m-856 -400 l0 -78 -162 -63 c-413 -162 -718
-328 -718 -392 0 -34 -16 -30 -60 15 -33 33 -39 45 -27 45 10 0 87 42 170 94
204 125 420 251 580 338 73 39 150 82 172 95 22 12 41 23 43 23 1 0 2 -35 2
-77z m2038 16 c685 -963 788 -3114 243 -5044 -122 -430 -397 -1192 -451 -1249
-11 -11 -197 53 -407 140 -701 291 -1258 710 -1576 1187 -309 462 -600 1471
-691 2397 -45 447 -54 1068 -18 1131 17 27 95 341 186 743 l11 50 110 58 c643
339 1401 540 2400 637 157 15 145 18 193 -50z m1657 -163 c201 -103 568 -310
706 -399 l56 -36 33 -123 c207 -778 286 -1837 187 -2498 -178 -1182 -287
-1468 -805 -2114 -393 -490 -933 -816 -1557 -941 -103 -21 -282 -45 -329 -45
-11 0 2 36 48 132 35 73 125 259 199 413 731 1519 1212 2899 1367 3921 121
795 57 1458 -172 1792 l-30 43 39 -16 c21 -9 137 -67 258 -129z m-5511 -1678
c-193 -136 -1057 -708 -1063 -703 -6 6 -110 538 -106 543 14 17 700 139 965
171 91 12 179 22 195 24 66 8 67 6 9 -35z"/>
<path d="M9030 7938 c1 -31 140 -433 149 -431 13 3 641 433 641 439 0 2 -178
4 -395 4 -309 0 -395 -3 -395 -12z"/>
</g>
</svg>
